<svg width="19" height="17" viewBox="0 0 19 17" fill="none" xmlns="http://www.w3.org/2000/svg">
<path d="M18.9733 9.5748C18.9733 9.57471 18.9733 9.57466 18.9732 9.57457L15.386 0.567223C15.3098 0.37584 15.0929 0.28241 14.9015 0.358543C14.9014 0.35859 14.9012 0.358636 14.9011 0.35873L0.347986 6.15364C0.288636 6.17928 0.237166 6.22022 0.198796 6.27225C0.0777653 6.33514 0.00130541 6.45962 0 6.59599V16.2933C0 16.4993 0.167 16.6663 0.372975 16.6663H16.0379C16.2439 16.6663 16.4109 16.4993 16.4109 16.2933V10.9971L18.7651 10.0594C18.9565 9.98312 19.0497 9.76614 18.9733 9.5748ZM15.665 15.9204H0.74595V6.96897H15.665V15.9204ZM6.22309 6.22488L12.4682 3.73639C13.0255 4.32224 13.7978 4.65522 14.6064 4.65839L15.2293 6.22488H6.22309ZM16.4109 10.1959V6.59599C16.4109 6.39002 16.2439 6.22302 16.0379 6.22302H16.032L15.2416 4.23804C15.2329 4.22149 15.2227 4.20573 15.211 4.19105C15.171 4.01141 15.0047 3.88884 14.8213 3.90386C14.0689 3.97244 13.3329 3.6555 12.8658 3.06168C12.7495 2.91822 12.5452 2.88256 12.3872 2.97813C12.3695 2.98023 12.352 2.98349 12.3347 2.98783L4.7103 6.02385C4.61804 6.06003 4.54423 6.13178 4.50554 6.22302H2.19011L14.831 1.18972L18.1426 9.50519L16.4109 10.1959Z" fill="#3F78F4"/>
<path d="M1.75849 13.4023C2.48262 13.6164 3.04927 14.1823 3.26419 14.9062C3.31133 15.0642 3.45665 15.1724 3.6215 15.1725C3.64085 15.1713 3.66006 15.1684 3.67894 15.1639C3.69568 15.1687 3.71279 15.1722 3.73004 15.1743H12.6814C12.6968 15.1723 12.712 15.1692 12.7269 15.165C12.9133 15.2103 13.1011 15.0961 13.1464 14.9097C13.1466 14.909 13.1468 14.9084 13.1469 14.9077C13.3613 14.1831 13.928 13.6163 14.6526 13.402C14.8283 13.3483 14.9375 13.1731 14.9085 12.9917C14.9135 12.9736 14.9171 12.9551 14.9193 12.9365V9.95269C14.9171 9.934 14.9134 9.91554 14.9081 9.89749C14.9373 9.71599 14.8281 9.54079 14.6522 9.48722C13.9276 9.2729 13.361 8.70593 13.1473 7.98115C13.0933 7.80422 12.9165 7.69475 12.734 7.72529C12.7168 7.72048 12.6992 7.71699 12.6814 7.71484H3.73004C3.71125 7.71708 3.69265 7.72081 3.67446 7.72603C3.49306 7.69713 3.31804 7.80627 3.26419 7.98189C3.04968 8.70635 2.483 9.2729 1.75849 9.48722C1.58277 9.54093 1.47359 9.71604 1.50263 9.89749C1.49778 9.91563 1.49429 9.93404 1.49219 9.95269V12.9365C1.49433 12.954 1.49783 12.9714 1.50263 12.9883C1.47205 13.171 1.58147 13.348 1.75849 13.4023ZM2.23814 10.1041C2.98707 9.80332 3.58066 9.20973 3.88147 8.46079H12.5296C12.8306 9.20973 13.4243 9.80332 14.1733 10.1041V12.7851C13.4246 13.0862 12.8311 13.6797 12.53 14.4284H3.88147C3.58033 13.6797 2.98684 13.0862 2.23814 12.7851V10.1041Z" fill="#3F78F4"/>
<path d="M8.20465 13.6827C9.44059 13.6827 10.4425 12.6808 10.4425 11.4449C10.4425 10.2089 9.44059 9.20703 8.20465 9.20703C6.9687 9.20703 5.9668 10.2089 5.9668 11.4449C5.96801 12.6803 6.96921 13.6815 8.20465 13.6827ZM8.20465 9.95298C9.0286 9.95298 9.69655 10.6209 9.69655 11.4449C9.69655 12.2688 9.0286 12.9368 8.20465 12.9368C7.3807 12.9368 6.71275 12.2688 6.71275 11.4449C6.71275 10.6209 7.3807 9.95298 8.20465 9.95298Z" fill="#3F78F4"/>
<path d="M4.10243 12.0037C4.41139 12.0037 4.66189 11.7532 4.66189 11.4442C4.66189 11.1353 4.41139 10.8848 4.10243 10.8848C3.79347 10.8848 3.54297 11.1353 3.54297 11.4442C3.54297 11.7532 3.79347 12.0037 4.10243 12.0037ZM4.10243 11.2577C4.20542 11.2577 4.28892 11.3412 4.28892 11.4442C4.28892 11.5472 4.20542 11.6307 4.10243 11.6307C3.99944 11.6307 3.91594 11.5472 3.91594 11.4442C3.91594 11.3412 3.99944 11.2577 4.10243 11.2577Z" fill="#3F78F4"/>
<path d="M12.3075 12.0037C12.6165 12.0037 12.867 11.7532 12.867 11.4442C12.867 11.1353 12.6165 10.8848 12.3075 10.8848C11.9985 10.8848 11.748 11.1353 11.748 11.4442C11.748 11.7532 11.9985 12.0037 12.3075 12.0037ZM12.3075 11.2577C12.4105 11.2577 12.494 11.3412 12.494 11.4442C12.494 11.5472 12.4105 11.6307 12.3075 11.6307C12.2045 11.6307 12.121 11.5472 12.121 11.4442C12.121 11.3412 12.2045 11.2577 12.3075 11.2577Z" fill="#3F78F4"/>
</svg>
