<svg width="19" height="18" viewBox="0 0 19 18" fill="none" xmlns="http://www.w3.org/2000/svg">
<path d="M15.2428 0.251953H3.75846C2.9124 0.251953 2.10098 0.576049 1.50272 1.15294C0.904459 1.72984 0.568359 2.51227 0.568359 3.32812V14.4023C0.568359 15.2182 0.904459 16.0006 1.50272 16.5775C2.10098 17.1544 2.9124 17.4785 3.75846 17.4785H15.2428C16.0889 17.4785 16.9003 17.1544 17.4986 16.5775C18.0968 16.0006 18.4329 15.2182 18.4329 14.4023V3.32812C18.4329 2.51227 18.0968 1.72984 17.4986 1.15294C16.9003 0.576049 16.0889 0.251953 15.2428 0.251953ZM17.1569 14.4023C17.1569 14.8919 16.9552 15.3613 16.5963 15.7075C16.2373 16.0536 15.7505 16.248 15.2428 16.248H3.75846C3.25082 16.248 2.76397 16.0536 2.40502 15.7075C2.04606 15.3613 1.8444 14.8919 1.8444 14.4023V3.32812C1.8444 2.83861 2.04606 2.36915 2.40502 2.02302C2.76397 1.67688 3.25082 1.48242 3.75846 1.48242H15.2428C15.7505 1.48242 16.2373 1.67688 16.5963 2.02302C16.9552 2.36915 17.1569 2.83861 17.1569 3.32812V14.4023ZM15.7405 5.67832C14.8538 4.67853 13.7522 3.87661 12.5121 3.32812C11.5594 2.93462 10.5338 2.73172 9.49746 2.73172C8.46107 2.73172 7.43548 2.93462 6.48281 3.32812C5.25532 3.88751 4.16726 4.6954 3.29271 5.69678C3.24031 5.76038 3.2015 5.83335 3.1785 5.91149C3.15551 5.98963 3.14878 6.07139 3.15872 6.15205C3.16808 6.23234 3.19374 6.31007 3.23424 6.38079C3.27475 6.45152 3.3293 6.51386 3.39479 6.56426L6.26589 8.74834C6.33494 8.80401 6.4161 8.84397 6.50336 8.86527C6.59061 8.88657 6.68172 8.88866 6.76992 8.87139C6.85889 8.8565 6.94357 8.82358 7.01836 8.77479C7.09315 8.72601 7.15634 8.66247 7.20378 8.58838C7.43213 8.18917 7.7636 7.85364 8.16603 7.61433C8.56846 7.37503 9.0282 7.24008 9.50065 7.22256C9.9767 7.23295 10.4417 7.36265 10.8501 7.59888C11.2584 7.83512 11.5959 8.16977 11.8294 8.56992C11.8769 8.64401 11.9401 8.70755 12.0148 8.75634C12.0896 8.80512 12.1743 8.83805 12.2633 8.85293C12.2991 8.85929 12.3359 8.85929 12.3717 8.85293C12.5157 8.85212 12.6551 8.80443 12.7673 8.71758L15.6384 6.5335C15.7039 6.4831 15.7585 6.42076 15.799 6.35003C15.8395 6.27931 15.8651 6.20158 15.8745 6.12129C15.8911 5.96246 15.8431 5.80362 15.7405 5.67832ZM12.493 7.37021C11.8951 6.67582 11.0606 6.20913 10.1387 6.05361V5.17383C10.1387 5.01066 10.0715 4.85417 9.9518 4.73879C9.83215 4.62341 9.66986 4.55859 9.50065 4.55859C9.33144 4.55859 9.16915 4.62341 9.0495 4.73879C8.92985 4.85417 8.86263 5.01066 8.86263 5.17383V6.05361C7.94069 6.20913 7.10618 6.67582 6.50833 7.37021L4.68997 5.98594C5.35944 5.34675 6.13873 4.82427 6.99323 4.4417C7.78578 4.11507 8.63875 3.94667 9.50065 3.94667C10.3626 3.94667 11.2155 4.11507 12.0081 4.4417C12.8626 4.82427 13.6419 5.34675 14.3113 5.98594L12.493 7.37021Z" fill="#3F78F4"/>
</svg>
