<svg width="18" height="18" viewBox="0 0 18 18" fill="none" xmlns="http://www.w3.org/2000/svg">
<path d="M8.99962 3.20117C5.80182 3.20117 3.2002 5.80279 3.2002 9.00059C3.2002 12.1984 5.80182 14.8 8.99962 14.8C12.1974 14.8 14.799 12.1984 14.799 9.00059C14.799 5.80279 12.1975 3.20117 8.99962 3.20117ZM8.99962 13.7456C6.38323 13.7456 4.25464 11.617 4.25464 9.00059C4.25464 6.38421 6.38323 4.25561 8.99962 4.25561C11.616 4.25561 13.7446 6.38421 13.7446 9.00059C13.7446 11.617 11.616 13.7456 8.99962 13.7456Z" fill="#3F78F4"/>
<path d="M11.2626 7.04505L8.47206 9.83555L6.73595 8.09949C6.53009 7.89359 6.19626 7.89359 5.99036 8.09949C5.78446 8.30539 5.78446 8.63919 5.99036 8.84508L8.09924 10.954C8.20219 11.0569 8.33712 11.1084 8.47202 11.1084C8.60692 11.1084 8.74189 11.0569 8.8448 10.954L12.0081 7.79064C12.214 7.58475 12.214 7.25094 12.0081 7.04505C11.8023 6.83915 11.4685 6.83915 11.2626 7.04505Z" fill="#3F78F4"/>
<path d="M17.2451 5.3034C17.2433 5.30231 15.4036 4.20112 15.4036 4.20112L14.9907 2.49089C14.8075 1.73201 14.1097 1.22479 13.3312 1.28517L11.2348 1.44741C11.2348 1.44741 10.0272 0.381655 10.0248 0.379651C9.43056 -0.12655 8.56785 -0.12655 7.97357 0.379651C7.97121 0.381655 6.7636 1.44741 6.7636 1.44741L4.66723 1.28517C3.89499 1.22521 3.20254 1.72357 3.01239 2.47198L2.43751 4.30375C2.43751 4.30375 0.757188 5.30202 0.754974 5.3034C0.0898681 5.71217 -0.17673 6.53263 0.121115 7.25429L0.838415 8.99253L0.121115 10.7307C-0.17673 11.4524 0.0898681 12.2729 0.755009 12.6816C0.757048 12.6829 2.59311 13.7769 2.59311 13.7769L3.00779 15.4941C3.18114 16.2122 3.81514 16.7048 4.54221 16.7047C4.65342 16.7047 4.5285 16.7089 6.74184 16.5393C6.74184 16.5393 7.97163 17.6185 7.9736 17.6201C8.27074 17.8732 8.63498 17.9998 8.99926 17.9998C9.3635 17.9998 9.72777 17.8732 10.0249 17.6201C10.0269 17.6185 11.2567 16.5393 11.2567 16.5393L13.3312 16.6999C14.1095 16.76 14.8075 16.253 14.9907 15.4941L15.4037 13.7839C17.6548 12.4364 17.1775 12.7233 17.2451 12.6816C17.9102 12.2728 18.1768 11.4524 17.8789 10.7307L17.1616 8.99246L17.8789 7.25422C18.1767 6.53263 17.9102 5.7122 17.2451 5.3034ZM16.1039 9.19365L16.9042 11.133C17.0032 11.3728 16.9152 11.6453 16.6951 11.782L14.6723 12.9928C14.5509 13.0655 14.4638 13.1839 14.4306 13.3214L13.9657 15.2467C13.9047 15.4997 13.6724 15.6686 13.4125 15.6486L11.1165 15.4709C10.9751 15.46 10.8349 15.5066 10.7281 15.6003L9.33865 16.8196C9.14143 16.9856 8.85701 16.9856 8.6598 16.8195L7.2704 15.6003C7.16362 15.5066 7.02331 15.4599 6.88198 15.4709L4.58597 15.6486C4.32633 15.6686 4.09386 15.4997 4.03281 15.2467L3.56608 13.3138C3.53279 13.1759 3.44531 13.0573 3.32345 12.9846L1.30458 11.7817C1.08477 11.6449 0.996968 11.3726 1.09587 11.133L1.89619 9.19361C1.94937 9.0648 1.94937 8.9202 1.89619 8.79138L1.09577 6.85202C0.996933 6.61252 1.08463 6.34037 1.3042 6.2035L3.14947 5.10727C3.2611 5.04095 3.34433 4.93578 3.3832 4.81189C4.06325 2.64371 4.02486 2.77098 4.03274 2.73833C4.09379 2.4854 4.32563 2.3162 4.5859 2.33645L6.90461 2.51591C7.04689 2.52688 7.18727 2.47985 7.29416 2.38555L8.66029 1.17983C8.85722 1.01442 9.14108 1.01442 9.33805 1.17976L10.7043 2.38555C10.8111 2.47992 10.9519 2.52688 11.0938 2.51591L13.4125 2.33645C13.6719 2.31641 13.9046 2.48537 13.9657 2.73836L14.4306 4.66363C14.4638 4.80117 14.5509 4.91958 14.6723 4.99227L16.695 6.20304C16.9152 6.33973 17.0032 6.61224 16.9042 6.85202L16.1038 8.79138C16.0507 8.92023 16.0507 9.06483 16.1039 9.19365Z" fill="#3F78F4"/>
</svg>
