<svg width="19" height="16" viewBox="0 0 19 16" fill="none" xmlns="http://www.w3.org/2000/svg">
<path d="M12.7456 6.19199C12.4219 5.86824 11.897 5.86835 11.5733 6.19199L9.20963 8.55563C9.09263 8.52789 8.9708 8.51279 8.8454 8.51279C7.97542 8.51279 7.26758 9.2212 7.26758 10.092C7.26758 10.9629 7.97538 11.6713 8.8454 11.6713C9.71624 11.6713 10.4247 10.9628 10.4247 10.092C10.4247 9.96664 10.4096 9.84481 10.3819 9.72781L12.7455 7.36418C13.0693 7.04054 13.0693 6.51566 12.7456 6.19199Z" fill="#3F78F4"/>
<path d="M15.5823 3.02726C12.0279 -0.527256 6.24291 -0.527435 2.68644 3.02744C-0.38308 6.09853 -0.858748 10.9427 1.5553 14.5457C1.81009 14.926 2.32506 15.0276 2.70535 14.773C3.08563 14.5182 3.18739 14.0033 2.93257 13.6229C2.25428 12.6105 1.85484 11.4783 1.72467 10.3261H2.50401C2.96176 10.3261 3.3329 9.95496 3.3329 9.4972C3.3329 9.03944 2.96176 8.66831 2.50401 8.66831H1.72204C1.87225 7.29133 2.40243 5.95465 3.29616 4.83042L3.86012 5.39446C4.02198 5.55631 4.23411 5.63728 4.44627 5.63728C4.6584 5.63728 4.87056 5.55631 5.03235 5.39446C5.35606 5.07082 5.35606 4.54595 5.03235 4.22223L4.46578 3.65578C5.60703 2.73915 6.95724 2.20748 8.34098 2.06072V2.84351C8.34098 3.30127 8.71212 3.6724 9.16988 3.6724C9.62764 3.6724 9.99877 3.30127 9.99877 2.84351V2.06823C11.3582 2.22532 12.6822 2.75471 13.8039 3.6561L13.2378 4.22227C12.9141 4.54598 12.9142 5.07078 13.2378 5.39453C13.3997 5.55638 13.6118 5.63728 13.824 5.63728C14.0361 5.63728 14.2483 5.55631 14.4101 5.39446L14.9736 4.83099C15.8675 5.95511 16.3978 7.29161 16.5481 8.66834H15.7662C15.3085 8.66834 14.9374 9.03948 14.9374 9.49724C14.9374 9.955 15.3085 10.3261 15.7662 10.3261H16.5456C16.4154 11.4783 16.0158 12.6104 15.3373 13.6228C15.0825 14.0031 15.1841 14.518 15.5643 14.7728C15.7061 14.8678 15.8664 14.9133 16.0251 14.9133C16.2922 14.9133 16.5545 14.7844 16.7144 14.5458C19.1294 10.9425 18.6533 6.09824 15.5823 3.02726Z" fill="#3F78F4"/>
<path d="M12.8707 13.7109H5.39921C4.94145 13.7109 4.57031 14.0821 4.57031 14.5398C4.57031 14.9976 4.94145 15.3687 5.39921 15.3687H12.8707C13.3285 15.3687 13.6996 14.9976 13.6996 14.5398C13.6996 14.0821 13.3285 13.7109 12.8707 13.7109Z" fill="#3F78F4"/>
</svg>
