<svg width="19" height="19" viewBox="0 0 19 19" fill="none" xmlns="http://www.w3.org/2000/svg">
<path d="M15.22 9.01594L14.3006 8.10286C14.0327 7.8368 13.5998 7.83831 13.3338 8.10621C13.1401 8.30134 13.0882 8.58397 13.1779 8.82593L5.82821 8.80884C5.90932 8.57078 5.85545 8.29676 5.6662 8.10621C5.40011 7.83831 4.96732 7.8368 4.69946 8.10286L3.78002 9.01594C3.65079 9.14425 3.57812 9.31884 3.57812 9.50098C3.57812 9.68312 3.65079 9.85771 3.78002 9.98602L4.69946 10.8991C4.83276 11.0315 5.00697 11.0976 5.18115 11.0976C5.3569 11.0976 5.53259 11.0303 5.6662 10.8958C5.85996 10.7006 5.91181 10.418 5.82212 10.176L13.1718 10.1931C13.0907 10.4312 13.1446 10.7052 13.3338 10.8958C13.4675 11.0303 13.6432 11.0977 13.8189 11.0976C13.993 11.0976 14.1672 11.0315 14.3006 10.8991L15.22 9.98602C15.3492 9.85771 15.4219 9.68312 15.4219 9.50098C15.4219 9.31884 15.3492 9.14425 15.22 9.01594Z" fill="#3F78F4"/>
<path d="M15.6872 3.31279C14.0345 1.66017 11.8372 0.75 9.5 0.75C7.16279 0.75 4.96548 1.66017 3.31279 3.31279C1.66017 4.96548 0.75 7.16279 0.75 9.5C0.75 11.8372 1.66017 14.0345 3.31279 15.6872C4.96548 17.3398 7.16279 18.25 9.5 18.25C11.0547 18.25 12.5818 17.8368 13.9163 17.0552C14.2421 16.8644 14.3515 16.4456 14.1607 16.1199C13.9698 15.7941 13.551 15.6847 13.2253 15.8755C12.1002 16.5345 10.812 16.8828 9.5 16.8828C5.4291 16.8828 2.11719 13.5709 2.11719 9.5C2.11719 5.4291 5.4291 2.11719 9.5 2.11719C13.5709 2.11719 16.8828 5.4291 16.8828 9.5C16.8828 11.0358 16.416 12.5078 15.5327 13.757C15.3148 14.0653 15.388 14.4919 15.6962 14.7098C16.0045 14.9278 16.4311 14.8546 16.649 14.5463C17.6964 13.065 18.25 11.32 18.25 9.5C18.25 7.16279 17.3398 4.96548 15.6872 3.31279Z" fill="#3F78F4"/>
</svg>
