<svg width="13" height="17" viewBox="0 0 13 17" fill="none" xmlns="http://www.w3.org/2000/svg">
<path d="M3.29883 12.1992C3.57389 12.1992 3.79688 11.9762 3.79688 11.7012C3.79688 11.4261 3.57389 11.2031 3.29883 11.2031C3.02376 11.2031 2.80078 11.4261 2.80078 11.7012C2.80078 11.9762 3.02376 12.1992 3.29883 12.1992Z" fill="#3F78F4"/>
<path d="M3.29883 14.332C3.57389 14.332 3.79688 14.109 3.79688 13.834C3.79688 13.5589 3.57389 13.3359 3.29883 13.3359C3.02376 13.3359 2.80078 13.5589 2.80078 13.834C2.80078 14.109 3.02376 14.332 3.29883 14.332Z" fill="#3F78F4"/>
<path d="M5.43359 12.1992C5.70866 12.1992 5.93164 11.9762 5.93164 11.7012C5.93164 11.4261 5.70866 11.2031 5.43359 11.2031C5.15853 11.2031 4.93555 11.4261 4.93555 11.7012C4.93555 11.9762 5.15853 12.1992 5.43359 12.1992Z" fill="#3F78F4"/>
<path d="M5.43359 14.332C5.70866 14.332 5.93164 14.109 5.93164 13.834C5.93164 13.5589 5.70866 13.3359 5.43359 13.3359C5.15853 13.3359 4.93555 13.5589 4.93555 13.834C4.93555 14.109 5.15853 14.332 5.43359 14.332Z" fill="#3F78F4"/>
<path d="M7.56641 12.1992C7.84147 12.1992 8.06445 11.9762 8.06445 11.7012C8.06445 11.4261 7.84147 11.2031 7.56641 11.2031C7.29134 11.2031 7.06836 11.4261 7.06836 11.7012C7.06836 11.9762 7.29134 12.1992 7.56641 12.1992Z" fill="#3F78F4"/>
<path d="M7.56641 14.332C7.84147 14.332 8.06445 14.109 8.06445 13.834C8.06445 13.5589 7.84147 13.3359 7.56641 13.3359C7.29134 13.3359 7.06836 13.5589 7.06836 13.834C7.06836 14.109 7.29134 14.332 7.56641 14.332Z" fill="#3F78F4"/>
<path d="M10.2352 0H4.90054C3.4493 0 2.26863 1.18067 2.26863 2.63191V3.20078H1.69976C0.836846 3.20078 0.134766 3.90283 0.134766 4.76574V15.435C0.134799 16.2979 0.836846 17 1.69976 17H9.16824C10.0312 17 10.7332 16.2979 10.7332 15.435V9.34123L11.3021 9.05682L12.1463 9.47893C12.3007 9.55606 12.4841 9.54779 12.6309 9.45711C12.7778 9.36637 12.8671 9.20603 12.8671 9.03344V2.63188C12.8671 1.18067 11.6864 0 10.2352 0V0ZM3.26472 2.63191C3.26472 1.72992 3.99855 0.996094 4.90054 0.996094H8.17567C7.81784 1.44563 7.60328 2.014 7.60328 2.63191V4.80117H3.26472V2.63191ZM9.73714 15.435C9.73714 15.7487 9.48191 16.0039 9.16824 16.0039H1.69976C1.38609 16.0039 1.13086 15.7487 1.13086 15.435V4.76574C1.13086 4.45207 1.38609 4.19688 1.69976 4.19688H2.26863V5.29922C2.26863 5.57427 2.49162 5.79727 2.76668 5.79727H8.10133C8.37638 5.79727 8.59937 5.57427 8.59937 5.29922V4.19688H9.16824C9.48191 4.19688 9.73714 4.45207 9.73714 4.76574V15.435ZM11.871 8.2276L11.5248 8.05451C11.4547 8.01945 11.3784 8.00195 11.3021 8.00195C11.2257 8.00195 11.1494 8.01948 11.0793 8.05455L10.7332 8.2276V4.76574C10.7332 3.90283 10.0311 3.20078 9.16821 3.20078H8.59937V2.63191C8.59937 1.72992 9.33319 0.996094 10.2352 0.996094C11.1372 0.996094 11.871 1.72992 11.871 2.63191V8.2276H11.871Z" fill="#3F78F4"/>
<path d="M8.10027 6.93555H2.76562C2.49057 6.93555 2.26758 7.15854 2.26758 7.43359V9.56749C2.26758 9.84255 2.49057 10.0655 2.76562 10.0655H8.10027C8.37533 10.0655 8.59832 9.84255 8.59832 9.56749V7.43359C8.59832 7.15854 8.37533 6.93555 8.10027 6.93555ZM7.60222 9.06945H3.26367V7.93164H7.60222V9.06945Z" fill="#3F78F4"/>
</svg>
