<svg width="18" height="14" viewBox="0 0 18 14" fill="none" xmlns="http://www.w3.org/2000/svg">
<path d="M16.0312 0.8125H1.96875C0.883195 0.8125 0 1.6957 0 2.78125V11.2188C0 12.3043 0.883195 13.1875 1.96875 13.1875H16.0312C17.1168 13.1875 18 12.3043 18 11.2188V2.78125C18 1.6957 17.1168 0.8125 16.0312 0.8125ZM1.96875 1.9375H16.0312C16.4965 1.9375 16.875 2.31603 16.875 2.78125V3.90625H1.125V2.78125C1.125 2.31603 1.50353 1.9375 1.96875 1.9375ZM16.0312 12.0625H1.96875C1.50353 12.0625 1.125 11.684 1.125 11.2188V5.03125H16.875V11.2188C16.875 11.684 16.4965 12.0625 16.0312 12.0625Z" fill="#3F78F4"/>
<path d="M3.9375 10.375H3.375C3.06436 10.375 2.8125 10.1231 2.8125 9.8125V9.25C2.8125 8.93936 3.06436 8.6875 3.375 8.6875H3.9375C4.24814 8.6875 4.5 8.93936 4.5 9.25V9.8125C4.5 10.1231 4.24814 10.375 3.9375 10.375Z" fill="#3F78F4"/>
</svg>
