<svg width="27" height="21" viewBox="0 0 27 21" fill="none" xmlns="http://www.w3.org/2000/svg">
<path d="M7.9656 0H7.04102V20.985H7.9656V0Z" fill="#3F78F4"/>
<path d="M5.62237 0H5.16016V20.985H5.62237V0Z" fill="#3F78F4"/>
<path d="M10.7827 0H10.3203V20.985H10.7827V0Z" fill="#3F78F4"/>
<path d="M9.84328 0H9.38086V20.985H9.84328V0Z" fill="#3F78F4"/>
<path d="M1.8796 0H1.40234V20.985H1.8796V0Z" fill="#3F78F4"/>
<path d="M3.28269 0H2.82031V20.985H3.28269V0Z" fill="#3F78F4"/>
<path d="M0.939633 0H0V21H0.939633V0Z" fill="#3F78F4"/>
<path d="M11.7222 0H11.2598V20.985H11.7222V0Z" fill="#3F78F4"/>
<path d="M21.5646 0H20.625V20.985H21.5646V0Z" fill="#3F78F4"/>
<path d="M24.3863 0H22.9844V20.985H24.3863V0Z" fill="#3F78F4"/>
<path d="M25.3248 0H24.8477V20.985H25.3248V0Z" fill="#3F78F4"/>
<path d="M26.7286 0H25.7891V21H26.7286V0Z" fill="#3F78F4"/>
<path d="M18.2853 0H17.3457V20.985H18.2853V0Z" fill="#3F78F4"/>
<path d="M20.1662 0H19.2266V20.985H20.1662V0Z" fill="#3F78F4"/>
<path d="M16.4083 0H15.4688V20.985H16.4083V0Z" fill="#3F78F4"/>
<path d="M14.0647 0H13.125V20.985H14.0647V0Z" fill="#3F78F4"/>
</svg>
