<svg width="15" height="25" viewBox="0 0 15 25" fill="none" xmlns="http://www.w3.org/2000/svg">
<path d="M12.7077 6.25063H12.1869V2.08398C12.1864 1.66972 12.0216 1.27256 11.7287 0.97963C11.4358 0.686702 11.0386 0.521937 10.6244 0.521484H4.37437C3.9601 0.521937 3.56294 0.686702 3.27001 0.97963C2.97708 1.27256 2.81232 1.66972 2.81187 2.08398V6.25063H2.29102C1.87675 6.25109 1.47959 6.41585 1.18666 6.70878C0.893733 7.00171 0.728968 7.39887 0.728516 7.81314V17.4989C0.729496 18.0902 0.930652 18.6637 1.29922 19.126L2.30068 20.3777C2.54413 20.6833 2.85347 20.9298 3.20559 21.099C3.55772 21.2682 3.94352 21.3556 4.33418 21.3548H4.37437V23.4381C4.37473 23.7143 4.48459 23.979 4.67986 24.1743C4.87513 24.3696 5.13986 24.4794 5.41602 24.4798H9.58271C9.85887 24.4794 10.1236 24.3696 10.3189 24.1743C10.5141 23.979 10.624 23.7143 10.6244 23.4381V21.3548H10.6646C11.0553 21.3556 11.4411 21.2681 11.7933 21.099C12.1455 20.9298 12.455 20.6832 12.6985 20.3777L13.6995 19.126C14.0681 18.6637 14.2692 18.0902 14.2702 17.4989V7.81314C14.2698 7.39887 14.105 7.00171 13.8121 6.70878C13.5191 6.41585 13.122 6.25109 12.7077 6.25063ZM3.85352 2.08398C3.85366 1.94589 3.90858 1.81349 4.00623 1.71584C4.10387 1.6182 4.23627 1.56328 4.37437 1.56313H10.6244C10.7625 1.56328 10.8949 1.6182 10.9925 1.71584C11.0902 1.81349 11.1451 1.94589 11.1452 2.08398V6.25063H3.85352V2.08398ZM9.58271 23.4381H5.41602V21.3548H9.58271V23.4381ZM13.2285 17.4989C13.2281 17.8537 13.1072 18.1978 12.8857 18.475L11.8853 19.7267C11.7391 19.9101 11.5534 20.0581 11.342 20.1596C11.1306 20.2612 10.8991 20.3137 10.6646 20.3131H4.33418C4.09974 20.3137 3.86822 20.2613 3.65692 20.1597C3.44562 20.0582 3.26002 19.9101 3.11401 19.7267L2.11304 18.475C1.89149 18.1978 1.77061 17.8537 1.77022 17.4989V7.81314C1.77034 7.67505 1.82525 7.54265 1.92289 7.445C2.02053 7.34735 2.15293 7.29243 2.29102 7.29228H12.7077C12.8458 7.29243 12.9782 7.34735 13.0758 7.445C13.1735 7.54265 13.2284 7.67505 13.2285 7.81314V17.4989Z" fill="#3F78F4"/>
<path d="M6.45903 2.60352H5.41733C5.2792 2.60352 5.14672 2.65839 5.04904 2.75607C4.95136 2.85375 4.89648 2.98623 4.89648 3.12437C4.89648 3.2625 4.95136 3.39498 5.04904 3.49266C5.14672 3.59034 5.2792 3.64521 5.41733 3.64521H6.45903C6.59717 3.64521 6.72965 3.59034 6.82733 3.49266C6.92501 3.39498 6.97988 3.2625 6.97988 3.12437C6.97988 2.98623 6.92501 2.85375 6.82733 2.75607C6.72965 2.65839 6.59717 2.60352 6.45903 2.60352Z" fill="#3F78F4"/>
<path d="M9.58403 2.60352H8.54234C8.4042 2.60352 8.27172 2.65839 8.17404 2.75607C8.07636 2.85375 8.02148 2.98623 8.02148 3.12437C8.02148 3.2625 8.07636 3.39498 8.17404 3.49266C8.27172 3.59034 8.4042 3.64521 8.54234 3.64521H9.58403C9.72217 3.64521 9.85465 3.59034 9.95233 3.49266C10.05 3.39498 10.1049 3.2625 10.1049 3.12437C10.1049 2.98623 10.05 2.85375 9.95233 2.75607C9.85465 2.65839 9.72217 2.60352 9.58403 2.60352Z" fill="#3F78F4"/>
<path d="M9.58398 10.416C9.51558 10.416 9.44784 10.4295 9.38464 10.4556C9.32144 10.4818 9.26401 10.5202 9.21565 10.5685C9.16728 10.6169 9.12891 10.6743 9.10274 10.7375C9.07658 10.8007 9.06312 10.8685 9.06313 10.9369V12.7598L8.02148 13.541V9.37437C8.02148 9.23623 7.96661 9.10375 7.86893 9.00607C7.77125 8.90839 7.63877 8.85352 7.50063 8.85352C7.3625 8.85352 7.23002 8.90839 7.13234 9.00607C7.03466 9.10375 6.97978 9.23623 6.97978 9.37437V14.5828L5.93813 13.8016V11.9785C5.93681 11.8413 5.88135 11.7101 5.78382 11.6135C5.68629 11.5169 5.55457 11.4627 5.41731 11.4627C5.28004 11.4627 5.14833 11.5169 5.0508 11.6135C4.95327 11.7101 4.89781 11.8413 4.89648 11.9785V14.0619C4.8965 14.1427 4.91535 14.2225 4.95155 14.2948C4.98775 14.3671 5.0403 14.43 5.10503 14.4784L6.98003 15.8847V18.2287C6.98003 18.3668 7.0349 18.4993 7.13258 18.597C7.23026 18.6946 7.36274 18.7495 7.50088 18.7495C7.63902 18.7495 7.7715 18.6946 7.86917 18.597C7.96685 18.4993 8.02173 18.3668 8.02173 18.2287V14.8431L9.89673 13.4369C9.96146 13.3884 10.014 13.3255 10.0502 13.2532C10.0864 13.1809 10.1053 13.1012 10.1053 13.0203V10.9369C10.1053 10.8684 10.0918 10.8007 10.0656 10.7374C10.0394 10.6742 10.001 10.6167 9.95261 10.5684C9.90419 10.52 9.84671 10.4816 9.78346 10.4555C9.72021 10.4294 9.65243 10.4159 9.58398 10.416Z" fill="#3F78F4"/>
</svg>
