<svg width="18" height="24" viewBox="0 0 18 24" fill="none" xmlns="http://www.w3.org/2000/svg">
<path d="M17.5089 17.4387C17.7035 17.4387 17.8612 17.281 17.8612 17.0864V8.86027C17.8612 3.97472 13.8864 0 9.00089 0C4.11534 0 0.140625 3.97472 0.140625 8.86027V14.924C0.140625 15.1185 0.298312 15.2763 0.492891 15.2763C0.687469 15.2763 0.845156 15.1186 0.845156 14.924V12.322C1.1393 13.0124 1.51894 13.6577 1.9702 14.2455V19.03H0.845156V16.333C0.845156 16.1385 0.687469 15.9807 0.492891 15.9807C0.298312 15.9807 0.140625 16.1384 0.140625 16.333V19.3822C0.140625 19.5768 0.298312 19.7345 0.492891 19.7345H0.552891V21.4174C0.552891 21.8887 0.936375 22.2721 1.4077 22.2721C1.87903 22.2721 2.26252 21.8887 2.26252 21.4174V19.7345H2.32247C2.51705 19.7345 2.67473 19.5768 2.67473 19.3822V15.0569C4.28395 16.6995 6.52528 17.7205 9.00094 17.7205C11.4068 17.7205 13.6645 16.7603 15.3271 15.0583V21.1101C15.3271 21.3046 15.4848 21.4623 15.6794 21.4623H15.7394V23.1452C15.7394 23.6165 16.1228 24 16.5942 24C17.0655 24 17.449 23.6165 17.449 23.1452V21.4623H17.509C17.7036 21.4623 17.8612 21.3046 17.8612 21.1101V18.4954C17.8612 18.3009 17.7036 18.1432 17.509 18.1432C17.3144 18.1432 17.1567 18.3009 17.1567 18.4954V20.7578H16.0317V14.1194C16.0317 14.1189 16.0317 14.1184 16.0317 14.1179V8.86027C16.0317 7.24416 15.4675 5.66494 14.4431 4.41342C13.4332 3.17963 12.0245 2.31731 10.4767 1.98539C10.2866 1.94494 10.0992 2.06578 10.0584 2.25595C10.0176 2.44617 10.1387 2.63344 10.329 2.67427C11.7213 2.97281 12.9887 3.74897 13.8979 4.85967C14.8196 5.98566 15.3271 7.40644 15.3271 8.86027C15.3271 12.3485 12.4892 15.1864 9.00094 15.1864C5.51264 15.1864 2.67473 12.3485 2.67473 8.86027C2.67473 5.37197 5.51264 2.53406 9.00094 2.53406C9.19552 2.53406 9.3532 2.37637 9.3532 2.1818C9.3532 1.98727 9.19552 1.82953 9.00094 1.82953C5.12419 1.82953 1.97025 4.98352 1.97025 8.86027C1.97025 12.737 5.12423 15.891 9.00094 15.891C11.7793 15.891 14.1862 14.271 15.3271 11.926V14.0007C13.767 15.9182 11.4686 17.016 9.00094 17.016C4.50384 17.016 0.845203 13.3574 0.845203 8.86027C0.845203 4.36317 4.50384 0.704484 9.00094 0.704484C13.498 0.704484 17.1567 4.36312 17.1567 8.86027V17.0865C17.1566 17.281 17.3143 17.4387 17.5089 17.4387ZM1.55798 21.4174C1.55798 21.5003 1.49058 21.5677 1.4077 21.5677C1.32483 21.5677 1.25742 21.5003 1.25742 21.4174V19.7346H1.55803V21.4174H1.55798ZM16.7444 21.4623V23.1452C16.7444 23.2281 16.677 23.2955 16.5941 23.2955C16.5113 23.2955 16.4438 23.2281 16.4438 23.1452V21.4623H16.7444Z" fill="#3F78F4"/>
</svg>
