<svg width="17" height="15" viewBox="0 0 17 15" fill="none" xmlns="http://www.w3.org/2000/svg">
<path d="M16.3991 3.35286H9.28971C9.13259 3.35286 8.9819 3.29045 8.87079 3.17934C8.75968 3.06824 8.69727 2.91754 8.69727 2.76042C8.69727 2.60329 8.75968 2.4526 8.87079 2.34149C8.9819 2.23039 9.13259 2.16797 9.28971 2.16797H16.3991C16.5562 2.16797 16.7069 2.23039 16.818 2.34149C16.9291 2.4526 16.9915 2.60329 16.9915 2.76042C16.9915 2.91754 16.9291 3.06824 16.818 3.17934C16.7069 3.29045 16.5562 3.35286 16.3991 3.35286Z" fill="#3F78F4"/>
<path d="M4.54991 3.35286H0.60026C0.443134 3.35286 0.292442 3.29045 0.181337 3.17934C0.070231 3.06824 0.0078125 2.91754 0.0078125 2.76042C0.0078125 2.60329 0.070231 2.4526 0.181337 2.34149C0.292442 2.23039 0.443134 2.16797 0.60026 2.16797H4.54991C4.70704 2.16797 4.85773 2.23039 4.96884 2.34149C5.07994 2.4526 5.14236 2.60329 5.14236 2.76042C5.14236 2.91754 5.07994 3.06824 4.96884 3.17934C4.85773 3.29045 4.70704 3.35286 4.54991 3.35286Z" fill="#3F78F4"/>
<path d="M16.3988 8.0931H14.029C13.8718 8.0931 13.7212 8.03068 13.61 7.91957C13.4989 7.80847 13.4365 7.65778 13.4365 7.50065C13.4365 7.34352 13.4989 7.19283 13.61 7.08173C13.7212 6.97062 13.8718 6.9082 14.029 6.9082H16.3988C16.5559 6.9082 16.7066 6.97062 16.8177 7.08173C16.9288 7.19283 16.9912 7.34352 16.9912 7.50065C16.9912 7.65778 16.9288 7.80847 16.8177 7.91957C16.7066 8.03068 16.5559 8.0931 16.3988 8.0931Z" fill="#3F78F4"/>
<path d="M9.2895 8.0931H0.60026C0.443133 8.0931 0.292442 8.03068 0.181337 7.91957C0.070231 7.80847 0.0078125 7.65778 0.0078125 7.50065C0.0078125 7.34352 0.070231 7.19283 0.181337 7.08173C0.292442 6.97062 0.443133 6.9082 0.60026 6.9082H9.2895C9.44662 6.9082 9.59731 6.97062 9.70842 7.08173C9.81953 7.19283 9.88194 7.34352 9.88194 7.50065C9.88194 7.65778 9.81953 7.80847 9.70842 7.91957C9.59731 8.03068 9.44662 8.0931 9.2895 8.0931Z" fill="#3F78F4"/>
<path d="M16.3991 12.8333H9.28971C9.13259 12.8333 8.9819 12.7709 8.87079 12.6598C8.75968 12.5487 8.69727 12.398 8.69727 12.2409C8.69727 12.0838 8.75968 11.9331 8.87079 11.822C8.9819 11.7109 9.13259 11.6484 9.28971 11.6484H16.3991C16.5562 11.6484 16.7069 11.7109 16.818 11.822C16.9291 11.9331 16.9915 12.0838 16.9915 12.2409C16.9915 12.398 16.9291 12.5487 16.818 12.6598C16.7069 12.7709 16.5562 12.8333 16.3991 12.8333Z" fill="#3F78F4"/>
<path d="M4.54991 12.8333H0.60026C0.443134 12.8333 0.292442 12.7709 0.181337 12.6598C0.070231 12.5487 0.0078125 12.398 0.0078125 12.2409C0.0078125 12.0838 0.070231 11.9331 0.181337 11.822C0.292442 11.7109 0.443134 11.6484 0.60026 11.6484H4.54991C4.70704 11.6484 4.85773 11.7109 4.96884 11.822C5.07994 11.9331 5.14236 12.0838 5.14236 12.2409C5.14236 12.398 5.07994 12.5487 4.96884 12.6598C4.85773 12.7709 4.70704 12.8333 4.54991 12.8333Z" fill="#3F78F4"/>
<path d="M8.49913 4.93446H5.33941C4.97291 4.93404 4.62154 4.78827 4.36238 4.52911C4.10323 4.26996 3.95745 3.91858 3.95703 3.55208V1.97222C3.95745 1.60572 4.10323 1.25435 4.36238 0.995195C4.62154 0.736039 4.97291 0.590262 5.33941 0.589844H8.49913C8.86563 0.590262 9.217 0.736039 9.47616 0.995195C9.73532 1.25435 9.88109 1.60572 9.88151 1.97222V3.55208C9.88109 3.91858 9.73532 4.26996 9.47616 4.52911C9.217 4.78827 8.86563 4.93404 8.49913 4.93446ZM5.33941 1.77474C5.28703 1.77474 5.2368 1.79555 5.19977 1.83258C5.16273 1.86962 5.14193 1.91985 5.14193 1.97222V3.55208C5.14193 3.60446 5.16273 3.65469 5.19977 3.69173C5.2368 3.72876 5.28703 3.74957 5.33941 3.74957H8.49913C8.55151 3.74957 8.60174 3.72876 8.63877 3.69173C8.67581 3.65469 8.69661 3.60446 8.69661 3.55208V1.97222C8.69661 1.91985 8.67581 1.86962 8.63877 1.83258C8.60174 1.79555 8.55151 1.77474 8.49913 1.77474H5.33941Z" fill="#3F78F4"/>
<path d="M13.2394 9.67274H10.0796C9.71314 9.67233 9.36177 9.52655 9.10262 9.26739C8.84346 9.00824 8.69768 8.65687 8.69727 8.29036V6.7105C8.69768 6.344 8.84346 5.99263 9.10262 5.73348C9.36177 5.47432 9.71314 5.32854 10.0796 5.32812H13.2394C13.6059 5.32854 13.9572 5.47432 14.2164 5.73348C14.4755 5.99263 14.6213 6.344 14.6217 6.7105V8.29036C14.6213 8.65687 14.4755 9.00824 14.2164 9.26739C13.9572 9.52655 13.6059 9.67233 13.2394 9.67274ZM10.0796 6.51302C10.0273 6.51302 9.97704 6.53383 9.94 6.57086C9.90297 6.6079 9.88216 6.65813 9.88216 6.7105V8.29036C9.88216 8.34274 9.90297 8.39297 9.94 8.43001C9.97704 8.46704 10.0273 8.48785 10.0796 8.48785H13.2394C13.2917 8.48785 13.342 8.46704 13.379 8.43001C13.416 8.39297 13.4368 8.34274 13.4368 8.29036V6.7105C13.4368 6.65813 13.416 6.6079 13.379 6.57086C13.342 6.53383 13.2917 6.51302 13.2394 6.51302H10.0796Z" fill="#3F78F4"/>
<path d="M8.49913 14.413H5.33941C4.97291 14.4126 4.62154 14.2668 4.36238 14.0076C4.10323 13.7485 3.95745 13.3971 3.95703 13.0306V11.4507C3.95745 11.0842 4.10323 10.7329 4.36238 10.4737C4.62154 10.2146 4.97291 10.0688 5.33941 10.0684H8.49913C8.86563 10.0688 9.217 10.2146 9.47616 10.4737C9.73532 10.7329 9.88109 11.0842 9.88151 11.4507V13.0306C9.88109 13.3971 9.73532 13.7485 9.47616 14.0076C9.217 14.2668 8.86563 14.4126 8.49913 14.413ZM5.33941 11.2533C5.28703 11.2533 5.2368 11.2741 5.19977 11.3111C5.16273 11.3481 5.14193 11.3984 5.14193 11.4507V13.0306C5.14193 13.083 5.16273 13.1332 5.19977 13.1702C5.2368 13.2073 5.28703 13.2281 5.33941 13.2281H8.49913C8.55151 13.2281 8.60174 13.2073 8.63877 13.1702C8.67581 13.1332 8.69661 13.083 8.69661 13.0306V11.4507C8.69661 11.3984 8.67581 11.3481 8.63877 11.3111C8.60174 11.2741 8.55151 11.2533 8.49913 11.2533H5.33941Z" fill="#3F78F4"/>
</svg>
