<svg width="15" height="19" viewBox="0 0 15 19" fill="none" xmlns="http://www.w3.org/2000/svg">
<path d="M12.2122 18.9792H2.0799C1.01983 18.9792 0.158203 18.0426 0.158203 16.8904V2.8388C0.158203 1.68655 1.01983 0.75 2.0799 0.75H10.1298C10.6008 0.75 11.0544 0.936781 11.4065 1.2771L13.4889 3.28844C13.8991 3.68565 14.1339 4.25461 14.1339 4.85V16.8904C14.1339 18.0426 13.2723 18.9792 12.2122 18.9792ZM2.0799 1.88932C1.59842 1.88932 1.20638 2.31546 1.20638 2.8388V16.8904C1.20638 17.4137 1.59842 17.8398 2.0799 17.8398H12.2122C12.6937 17.8398 13.0858 17.4137 13.0858 16.8904V4.85C13.0858 4.57964 12.9788 4.32068 12.7922 4.13987L10.7098 2.12854C10.5498 1.97444 10.3436 1.88932 10.1298 1.88932H2.0799Z" fill="#3F78F4"/>
<path d="M2.77897 5.30794C2.48967 5.30794 2.25488 5.05274 2.25488 4.73828V3.59896C2.25488 3.2845 2.48967 3.0293 2.77897 3.0293C3.06827 3.0293 3.30306 3.2845 3.30306 3.59896V4.73828C3.30306 5.05274 3.06827 5.30794 2.77897 5.30794Z" fill="#3F78F4"/>
<path d="M4.87565 5.30794C4.58635 5.30794 4.35156 5.05274 4.35156 4.73828V3.59896C4.35156 3.2845 4.58635 3.0293 4.87565 3.0293C5.16495 3.0293 5.39974 3.2845 5.39974 3.59896V4.73828C5.39974 5.05274 5.16495 5.30794 4.87565 5.30794Z" fill="#3F78F4"/>
<path d="M6.97135 5.30794C6.68206 5.30794 6.44727 5.05274 6.44727 4.73828V3.59896C6.44727 3.2845 6.68206 3.0293 6.97135 3.0293C7.26065 3.0293 7.49544 3.2845 7.49544 3.59896V4.73828C7.49544 5.05274 7.26065 5.30794 6.97135 5.30794Z" fill="#3F78F4"/>
<path d="M9.06803 5.30794C8.77874 5.30794 8.54395 5.05274 8.54395 4.73828V3.59896C8.54395 3.2845 8.77874 3.0293 9.06803 3.0293C9.35733 3.0293 9.59212 3.2845 9.59212 3.59896V4.73828C9.59212 5.05274 9.35733 5.30794 9.06803 5.30794Z" fill="#3F78F4"/>
<path d="M11.5138 16.7012H2.77897C2.48967 16.7012 2.25488 16.446 2.25488 16.1315V10.4349C2.25488 10.1204 2.48967 9.86523 2.77897 9.86523H11.5138C11.8031 9.86523 12.0379 10.1204 12.0379 10.4349V16.1315C12.0379 16.446 11.8031 16.7012 11.5138 16.7012ZM3.30306 15.5618H10.9897V11.0046H3.30306V15.5618Z" fill="#3F78F4"/>
</svg>
