<svg width="17" height="17" viewBox="0 0 17 17" fill="none" xmlns="http://www.w3.org/2000/svg">
<path d="M1.19456 0.466937C1.0988 0.468799 1.00435 0.48946 0.916592 0.527828C0.828837 0.566197 0.7495 0.621535 0.683111 0.690569C0.616723 0.759602 0.564583 0.840994 0.52967 0.93018C0.494757 1.01937 0.477754 1.11457 0.479632 1.21033V15.7909C0.483863 15.9814 0.562544 16.1628 0.698828 16.2961C0.835113 16.4294 1.01817 16.504 1.2088 16.504C1.39943 16.504 1.58249 16.4294 1.71877 16.2961C1.85505 16.1628 1.93373 15.9814 1.93797 15.7909V1.21033C1.93989 1.11217 1.92198 1.01468 1.8853 0.92362C1.84862 0.832555 1.79393 0.749811 1.72452 0.680392C1.6551 0.610973 1.57237 0.556264 1.48131 0.519586C1.39025 0.482909 1.29271 0.465011 1.19456 0.466937ZM15.7822 0.466937C15.6858 0.46787 15.5906 0.487855 15.502 0.52581C15.4134 0.563764 15.3332 0.618918 15.2661 0.688046C15.199 0.757173 15.1462 0.838936 15.1108 0.928582C15.0755 1.01823 15.0582 1.11398 15.0601 1.21033V15.7909C15.0601 15.9844 15.137 16.17 15.2739 16.3069C15.4108 16.4438 15.5964 16.5207 15.79 16.5207C15.9836 16.5207 16.1692 16.4438 16.3061 16.3069C16.443 16.17 16.5199 15.9844 16.5199 15.7909V1.21033C16.5218 1.11266 16.504 1.01565 16.4677 0.924965C16.4314 0.834285 16.3772 0.751835 16.3084 0.682495C16.2396 0.613155 16.1576 0.558292 16.0672 0.521268C15.9768 0.484245 15.8798 0.465784 15.7822 0.466937ZM10.8033 5.69927C10.6579 5.69929 10.5158 5.74279 10.3953 5.82417C10.2748 5.90554 10.1814 6.02108 10.127 6.15595C10.0727 6.29083 10.0599 6.4389 10.0903 6.5811C10.1207 6.72329 10.193 6.8531 10.2977 6.95393L11.1152 7.77142H5.88287L6.70176 6.95393C6.806 6.85142 6.87702 6.71994 6.9056 6.57656C6.93418 6.43318 6.91901 6.28455 6.86205 6.1499C6.80509 6.01525 6.70897 5.90081 6.58617 5.82148C6.46337 5.74214 6.31956 5.70158 6.1734 5.70499C5.98446 5.711 5.80524 5.79009 5.67352 5.92568L3.61135 7.98647C3.47552 8.1231 3.39929 8.30794 3.39929 8.50059C3.39929 8.69325 3.47552 8.87809 3.61135 9.01472L5.67352 11.0769C5.7389 11.1532 5.81935 11.2152 5.90982 11.2589C6.00029 11.3027 6.09882 11.3272 6.19924 11.3311C6.29965 11.335 6.39979 11.3181 6.49335 11.2814C6.58691 11.2447 6.67189 11.1891 6.74294 11.1181C6.814 11.047 6.8696 10.962 6.90627 10.8684C6.94293 10.7749 6.95986 10.6748 6.95599 10.5743C6.95212 10.4739 6.92754 10.3754 6.88379 10.2849C6.84004 10.1945 6.77807 10.114 6.70176 10.0486L5.88572 9.22977H11.1124L10.2977 10.0486C10.2255 10.1153 10.1674 10.196 10.1271 10.2857C10.0868 10.3754 10.0651 10.4723 10.0632 10.5706C10.0614 10.669 10.0794 10.7667 10.1163 10.8578C10.1531 10.949 10.2081 11.0318 10.2777 11.1012C10.3474 11.1706 10.4304 11.2252 10.5218 11.2617C10.6131 11.2982 10.7109 11.3159 10.8092 11.3136C10.9075 11.3113 11.0044 11.2892 11.0939 11.2485C11.1835 11.2078 11.2639 11.1494 11.3303 11.0769L13.3924 9.01472C13.5283 8.87809 13.6045 8.69325 13.6045 8.50059C13.6045 8.30794 13.5283 8.1231 13.3924 7.98647L11.3303 5.92568C11.2623 5.85426 11.1806 5.79742 11.09 5.75848C10.9994 5.71954 10.9019 5.69937 10.8033 5.69919V5.69927Z" fill="#3F78F4"/>
</svg>
