<svg width="26" height="26" viewBox="0 0 26 26" fill="none" xmlns="http://www.w3.org/2000/svg">
<path d="M25.4473 8.76773C25.3894 8.5796 25.2582 8.42267 25.0832 8.33254L20.0732 5.75054C19.5218 5.44283 18.8307 6.02617 19.041 6.62131L19.4711 7.98027C18.405 8.50599 16.8175 9.56537 15.51 10.9696V5.97791H16.7044C17.3234 5.99848 17.6765 5.18943 17.2407 4.74951L13.5357 0.751667C13.2611 0.442153 12.7377 0.442153 12.463 0.751667L8.75799 4.74951C8.32226 5.18957 8.67541 5.99843 9.29439 5.97791C9.29434 5.97791 10.4888 5.97791 10.4888 5.97791V10.9696C9.18026 9.56464 7.59477 8.50677 6.52763 7.98027L6.9578 6.62136C7.1682 6.02612 6.47688 5.44283 5.92566 5.75059L0.91548 8.33254C0.55707 8.50813 0.410283 8.98564 0.608208 9.33225L3.22077 14.1316C3.49738 14.6822 4.37098 14.6102 4.55374 14.022L4.95632 12.8633C5.49783 13.2084 6.17648 13.7171 6.84143 14.421C7.87835 15.519 8.70836 16.8759 9.30857 18.4544C9.87753 19.9486 10.2538 21.6097 10.427 23.3917C10.4686 23.8184 10.4888 24.2621 10.4888 24.7481C10.4888 25.152 10.8162 25.4794 11.22 25.4794H14.7637H14.7788C15.1827 25.4794 15.5101 25.152 15.5101 24.7481V20.3917C16.2447 18.0807 18.1202 15.5193 19.1573 14.4211C19.8222 13.7171 20.5009 13.2083 21.0424 12.8633L21.445 14.022C21.6278 14.6104 22.5016 14.6819 22.778 14.1316L25.3905 9.33225C25.4846 9.15938 25.5051 8.95585 25.4473 8.76773ZM12.9993 2.32459L15.0296 4.51526H14.7787C14.3749 4.51526 14.0475 4.84267 14.0475 5.24656V16.7895C13.5177 15.3687 12.8208 14.0083 11.9512 12.7653V5.24656C11.9512 4.84267 11.6238 4.51526 11.2199 4.51526H10.969L12.9993 2.32459ZM11.8827 23.2502C11.6968 21.3386 11.2907 19.55 10.6755 17.9343C10.0066 16.1753 9.07443 14.6554 7.90462 13.4168C6.7882 12.2349 5.64696 11.5258 4.88612 11.139C4.50684 10.935 3.99594 11.1411 3.86403 11.5509L3.7148 11.9803L2.25035 9.29004L5.03281 7.85605L4.94082 8.1466C4.82825 8.50228 5.00136 8.88565 5.34261 9.03634C6.31318 9.46495 7.77914 10.291 9.2509 11.7924C9.74401 12.2953 10.207 12.8453 10.6273 13.4274C11.4021 14.4991 12.0557 15.708 12.57 17.0203C13.439 19.2497 13.8672 21.6326 13.9992 24.0169H11.936C11.9247 23.7542 11.9069 23.5 11.8827 23.2502ZM22.2839 11.9803L22.1347 11.5508C22.0028 11.141 21.4917 10.9351 21.1126 11.1389C20.3517 11.5257 19.2105 12.2348 18.094 13.4168C17.4098 14.1413 16.3885 15.4565 15.51 16.9483V13.2391C15.8926 12.7267 16.3081 12.2408 16.7478 11.7923C18.2195 10.291 19.6855 9.46495 20.656 9.03629C20.9973 8.8856 21.1704 8.50223 21.0578 8.1466L20.9658 7.856L23.7483 9.28999L22.2839 11.9803Z" fill="#3F78F4"/>
</svg>
