<svg width="27" height="27" viewBox="0 0 27 27" fill="none" xmlns="http://www.w3.org/2000/svg">
<path d="M13.8918 12.2848V8.05469C13.8918 7.60781 14.2574 7.24219 14.7043 7.24219C15.1512 7.24219 15.5168 7.60781 15.5168 8.05469V10.3246L20.2648 5.57656C20.5797 5.26172 21.0977 5.26172 21.4125 5.57656C21.7273 5.89141 21.7273 6.40937 21.4125 6.72422L16.6645 11.4723H18.9344C19.3813 11.4723 19.7469 11.8379 19.7469 12.2848C19.7469 12.7316 19.3813 13.0973 18.9344 13.0973H14.7043C14.2574 13.0973 13.8918 12.7367 13.8918 12.2848ZM26.4805 1.42773V24.5027C26.4805 24.9496 26.1148 25.3152 25.668 25.3152H12.4902V25.6098C12.4902 26.0566 12.1246 26.4223 11.6777 26.4223H1.29297C0.846094 26.4223 0.480469 26.0566 0.480469 25.6098V15.225C0.480469 14.7781 0.846094 14.4125 1.29297 14.4125H1.78047V1.42773C1.78047 0.980859 2.14609 0.615234 2.59297 0.615234H25.668C26.1148 0.615234 26.4805 0.980859 26.4805 1.42773ZM10.8652 16.0375H2.10547V24.7973H10.8652V16.0375ZM24.8555 2.24023H3.40547V14.4125H11.6777C12.1246 14.4125 12.4902 14.7781 12.4902 15.225V23.6902H24.8555V2.24023Z" fill="#3F78F4"/>
</svg>
