<svg width="25" height="25" viewBox="0 0 25 25" fill="none" xmlns="http://www.w3.org/2000/svg">
<path d="M22.1328 3.74437H21.2553V2.86687C21.2533 2.16932 20.9753 1.50092 20.482 1.00767C19.9888 0.514418 19.3204 0.236412 18.6228 0.234375H2.82781C2.13026 0.236412 1.46185 0.514418 0.968604 1.00767C0.475356 1.50092 0.19735 2.16932 0.195312 2.86687V18.6619C0.19735 19.3594 0.475356 20.0278 0.968604 20.5211C1.46185 21.0143 2.13026 21.2923 2.82781 21.2944H3.70531V22.1719C3.70735 22.8694 3.98536 23.5378 4.4786 24.0311C4.97185 24.5243 5.64026 24.8023 6.33781 24.8044H22.1328C22.8304 24.8023 23.4988 24.5243 23.992 24.0311C24.4853 23.5378 24.7633 22.8694 24.7653 22.1719V6.37687C24.7633 5.67932 24.4853 5.01092 23.992 4.51767C23.4988 4.02442 22.8304 3.74641 22.1328 3.74437ZM2.82781 19.5394C2.59529 19.5387 2.37249 19.446 2.20807 19.2816C2.04365 19.1172 1.95098 18.8944 1.95031 18.6619V2.86687C1.95098 2.63435 2.04365 2.41155 2.20807 2.24713C2.37249 2.08271 2.59529 1.99005 2.82781 1.98937H18.6228C18.8553 1.99005 19.0781 2.08271 19.2426 2.24713C19.407 2.41155 19.4996 2.63435 19.5003 2.86687V18.6619C19.4996 18.8944 19.407 19.1172 19.2426 19.2816C19.0781 19.446 18.8553 19.5387 18.6228 19.5394H2.82781ZM23.0103 22.1719C23.0096 22.4044 22.917 22.6272 22.7526 22.7916C22.5881 22.956 22.3653 23.0487 22.1328 23.0494H6.33781C6.10529 23.0487 5.88249 22.956 5.71807 22.7916C5.55365 22.6272 5.46098 22.4044 5.46031 22.1719V21.2944H18.6228C19.3204 21.2923 19.9888 21.0143 20.482 20.5211C20.9753 20.0278 21.2533 19.3594 21.2553 18.6619V5.49937H22.1328C22.3653 5.50005 22.5881 5.59271 22.7526 5.75713C22.917 5.92155 23.0096 6.14435 23.0103 6.37687V22.1719Z" fill="#3F78F4"/>
<path d="M16.867 10.7636C16.867 10.9963 16.7746 11.2195 16.61 11.3841C16.4455 11.5486 16.2223 11.6411 15.9895 11.6411H11.602V16.0286C11.602 16.2613 11.5096 16.4845 11.345 16.6491C11.1805 16.8136 10.9573 16.9061 10.7245 16.9061C10.4918 16.9061 10.2686 16.8136 10.104 16.6491C9.93948 16.4845 9.84703 16.2613 9.84703 16.0286V11.6411H5.45953C5.2268 11.6411 5.00361 11.5486 4.83905 11.3841C4.67448 11.2195 4.58203 10.9963 4.58203 10.7636C4.58203 10.5309 4.67448 10.3077 4.83905 10.1431C5.00361 9.97854 5.2268 9.88609 5.45953 9.88609H9.84703V5.49859C9.84703 5.26587 9.93948 5.04267 10.104 4.87811C10.2686 4.71354 10.4918 4.62109 10.7245 4.62109C10.9573 4.62109 11.1805 4.71354 11.345 4.87811C11.5096 5.04267 11.602 5.26587 11.602 5.49859V9.88609H15.9895C16.2223 9.88609 16.4455 9.97854 16.61 10.1431C16.7746 10.3077 16.867 10.5309 16.867 10.7636Z" fill="#3F78F4"/>
</svg>
