<svg width="34" height="24" viewBox="0 0 34 24" fill="none" xmlns="http://www.w3.org/2000/svg">
<path d="M33.3669 11.988L27.7737 6.20893C27.5901 6.01913 27.3372 5.91201 27.0731 5.91201H23.499V1.70547C23.499 1.16701 23.0624 0.730469 22.524 0.730469H4.41466C3.8762 0.730469 3.43966 1.16701 3.43966 1.70547V4.63138H2.70165C2.16319 4.63138 1.72665 5.06792 1.72665 5.60638C1.72665 6.14484 2.16319 6.58138 2.70165 6.58138H3.43966V8.53229H1.33633C0.797868 8.53229 0.361328 8.96883 0.361328 9.50729C0.361328 10.0458 0.797868 10.4823 1.33633 10.4823H3.43966V19.4365C3.43966 19.975 3.8762 20.4115 4.41466 20.4115H6.49005C6.67907 21.0407 7.02181 21.6172 7.49943 22.0949C8.26006 22.8556 9.2714 23.2744 10.3471 23.2744C11.4228 23.2744 12.434 22.8556 13.1947 22.0949C13.6781 21.6115 14.012 21.0347 14.1978 20.4222H23.5087C23.6945 21.0347 24.0285 21.6115 24.5118 22.0949C25.2724 22.8556 26.2838 23.2744 27.3595 23.2744C28.4352 23.2744 29.4464 22.8556 30.2071 22.0949C30.6905 21.6115 31.0244 21.0347 31.2102 20.4222H32.6663C33.2048 20.4222 33.6413 19.9857 33.6413 19.4472V12.6661C33.6413 12.413 33.5429 12.1699 33.3669 11.988ZM30.3659 11.6911H23.4716V7.86201H26.6599L30.3659 11.6911ZM5.38966 10.4822H10.4644C11.0029 10.4822 11.4394 10.0457 11.4394 9.50723C11.4394 8.96877 11.0029 8.53222 10.4644 8.53222H5.38966V6.58131H11.1796C11.7181 6.58131 12.1546 6.14477 12.1546 5.60631C12.1546 5.06785 11.7181 4.63131 11.1796 4.63131H5.38966V2.6804H11.1796H21.5489L21.5216 18.4721H14.2976C14.1497 17.7121 13.7821 16.9868 13.1947 16.3993C12.4341 15.6386 11.4228 15.2198 10.3471 15.2198C9.2714 15.2198 8.26013 15.6386 7.49943 16.3993C6.92743 16.9713 6.54881 17.6851 6.39612 18.4614H5.38966V10.4822ZM11.8159 20.716C11.4235 21.1084 10.9019 21.3244 10.3471 21.3244C9.79231 21.3244 9.27062 21.1084 8.87828 20.716C8.48594 20.3237 8.26988 19.802 8.26988 19.2472C8.26988 18.6922 8.48594 18.1706 8.87828 17.7782C9.27062 17.3859 9.79231 17.1698 10.3471 17.1698C10.9019 17.1698 11.4235 17.3859 11.8159 17.7782C12.6258 18.5882 12.6258 19.9061 11.8159 20.716ZM28.8281 20.716C28.4358 21.1084 27.9141 21.3244 27.3593 21.3244C26.8046 21.3244 26.2829 21.1084 25.8905 20.716C25.0806 19.9061 25.0806 18.5882 25.8905 17.7783C26.2829 17.3859 26.8046 17.1699 27.3593 17.1699C27.9141 17.1699 28.4358 17.3859 28.8281 17.7783C29.2205 18.1706 29.4365 18.6923 29.4365 19.2472C29.4365 19.802 29.2205 20.3237 28.8281 20.716ZM31.3099 18.4722C31.162 17.7122 30.7945 16.9868 30.207 16.3994C29.4464 15.6387 28.435 15.2198 27.3593 15.2198C26.2837 15.2198 25.2724 15.6387 24.5117 16.3994C23.9938 16.9174 23.6478 17.5427 23.4716 18.2042V13.6411H31.6913V18.4722H31.3099Z" fill="#3F78F4"/>
</svg>
