<svg width="30" height="30" viewBox="0 0 30 30" fill="none" xmlns="http://www.w3.org/2000/svg">
<path d="M27.8376 23.1336L26.3599 22.2805C25.9519 22.0448 25.4301 22.1847 25.1945 22.5927C24.9589 23.0008 25.0988 23.5226 25.5068 23.7581L26.9845 24.6112C27.1188 24.6888 27.2655 24.7256 27.4102 24.7256C27.7051 24.7256 27.9918 24.5727 28.1498 24.299C28.3854 23.8909 28.2455 23.3691 27.8376 23.1336Z" fill="#3F78F4"/>
<path d="M23.7581 25.5067C23.5225 25.0987 23.0008 24.959 22.5927 25.1945C22.1847 25.4301 22.0449 25.9518 22.2805 26.3599L23.1336 27.8375C23.2916 28.1112 23.5784 28.2642 23.8732 28.2642C24.018 28.2642 24.1646 28.2273 24.299 28.1497C24.7071 27.9142 24.8469 27.3924 24.6112 26.9844L23.7581 25.5067Z" fill="#3F78F4"/>
<path d="M19.0387 26.1465C18.5675 26.1465 18.1855 26.5285 18.1855 26.9996V28.7059C18.1855 29.177 18.5675 29.559 19.0387 29.559C19.5098 29.559 19.8918 29.177 19.8918 28.7059V26.9996C19.8918 26.5285 19.5098 26.1465 19.0387 26.1465Z" fill="#3F78F4"/>
<path d="M25.9341 15.9092C26.0789 15.9092 26.2256 15.8724 26.3599 15.7948L27.8376 14.9417C28.2456 14.7061 28.3855 14.1844 28.1498 13.7763C27.9142 13.3682 27.3925 13.2285 26.9845 13.464L25.5068 14.3172C25.0988 14.5527 24.9589 15.0745 25.1945 15.4825C25.3525 15.7562 25.6393 15.9092 25.9341 15.9092Z" fill="#3F78F4"/>
<path d="M28.7059 18.1836H26.9996C26.5285 18.1836 26.1465 18.5656 26.1465 19.0367C26.1465 19.5079 26.5285 19.8898 26.9996 19.8898H28.7059C29.177 19.8898 29.559 19.5079 29.559 19.0367C29.559 18.5656 29.177 18.1836 28.7059 18.1836Z" fill="#3F78F4"/>
<path d="M23.7168 21.7391C25.0613 19.4103 24.4693 16.4864 22.4442 14.8434L23.7576 12.5684C23.8708 12.3725 23.9014 12.1396 23.8429 11.9211C23.7843 11.7025 23.6413 11.5162 23.4454 11.4031L20.9826 9.9812C20.3905 9.63938 19.7009 9.54861 19.0405 9.72549C18.6653 9.82605 18.3253 10.0063 18.0388 10.2518L12.2487 6.90887C12.144 6.84836 12.0367 6.79114 11.9282 6.73569V1.29258C11.9282 0.821426 11.5462 0.439453 11.0751 0.439453H7.66258C7.19142 0.439453 6.80945 0.821426 6.80945 1.29258V6.21096C5.36955 6.60573 4.1005 7.43798 3.16786 8.59271C2.51067 7.74869 2.1457 6.70401 2.1457 5.61508V1.29258C2.1457 0.821426 1.76373 0.439453 1.29258 0.439453C0.821426 0.439453 0.439453 0.821426 0.439453 1.29258V5.61508C0.439453 7.29795 1.0839 8.90285 2.22675 10.1134C0.720984 13.4054 1.94209 17.3767 5.13932 19.2226L10.9308 22.5663C10.7393 23.6023 11.2039 24.6942 12.167 25.2503L14.6298 26.6721C14.7606 26.7477 14.9079 26.7865 15.0564 26.7865C15.1303 26.7865 15.2045 26.7768 15.2771 26.7574C15.4957 26.6989 15.682 26.5559 15.7951 26.3599L17.1087 24.0847C17.7334 24.3238 18.3837 24.4397 19.0284 24.4397C20.8971 24.4395 22.7172 23.4705 23.7168 21.7391ZM8.5157 2.1457H10.222V12.2126C10.222 12.683 9.83924 13.0657 9.36883 13.0657C8.89841 13.0657 8.5157 12.683 8.5157 12.2126V2.1457ZM11.6567 21.0152L5.99239 17.7449C4.7425 17.0233 3.84848 15.8582 3.47493 14.4641C3.10137 13.07 3.2931 11.614 4.01467 10.3641C4.65059 9.26264 5.63948 8.43551 6.8094 8.00144V12.2126C6.8094 13.6238 7.95753 14.772 9.36877 14.772C10.78 14.772 11.9281 13.6238 11.9281 12.2126V8.69401L17.0599 11.6568L11.6567 21.0152ZM14.7441 24.7679L13.0201 23.7726C12.6128 23.5374 12.4727 23.0146 12.7078 22.6072L18.9641 11.7711C19.0781 11.5737 19.262 11.4325 19.4821 11.3736C19.5556 11.3539 19.6302 11.3441 19.7043 11.3441C19.8521 11.3441 19.998 11.3829 20.1295 11.4588L21.8535 12.4541L14.7441 24.7679ZM21.5746 16.3496C22.7917 17.4983 23.1115 19.375 22.2392 20.886C21.3667 22.397 19.5815 23.0583 17.9782 22.5787L21.5746 16.3496Z" fill="#3F78F4"/>
</svg>
