<svg width="25" height="25" viewBox="0 0 25 25" fill="none" xmlns="http://www.w3.org/2000/svg">
<path d="M7.0282 18.692C7.93839 17.9832 8.52547 16.8781 8.52547 15.638C8.52547 13.5038 6.78902 11.7676 4.65488 11.7676C2.52075 11.7676 0.784492 13.5038 0.784492 15.638C0.784492 16.8781 1.37157 17.9832 2.28157 18.692C0.997162 19.4561 0 20.8992 0 22.6986V24.2676C0 24.6721 0.327873 25 0.732422 25H8.57754C8.9819 25 9.30996 24.6721 9.30996 24.2676V22.6986C9.30996 20.8996 8.31299 19.4563 7.0282 18.692ZM2.24934 15.638C2.24934 14.3116 3.32851 13.2324 4.65508 13.2324C5.98145 13.2324 7.06062 14.3116 7.06062 15.638C7.06062 16.9645 5.98145 18.0437 4.65508 18.0437C3.32851 18.0437 2.24934 16.9645 2.24934 15.638ZM7.84512 23.5352H1.46484V22.6986C1.46484 20.9366 2.8904 19.5086 4.65488 19.5086C6.41689 19.5086 7.84492 20.9341 7.84492 22.6986V23.5352H7.84512Z" fill="#3F78F4"/>
<path d="M21.9141 0H12.5C10.7956 0 9.41406 1.37901 9.41406 3.0859V17.207C9.41406 17.8061 10.1011 18.1564 10.5859 17.7929L13.5286 15.5859H21.9141C23.6185 15.5859 25 14.2069 25 12.5V3.0859C25 1.38149 23.6209 0 21.9141 0V0ZM23.5351 12.5C23.5351 13.3961 22.8105 14.1211 21.9141 14.1211H13.2845C13.126 14.1211 12.9718 14.1726 12.845 14.2675L10.8789 15.7421V3.0859C10.8789 2.18983 11.6035 1.46484 12.5 1.46484H21.9141C22.8101 1.46484 23.5351 2.18945 23.5351 3.0859V12.5Z" fill="#3F78F4"/>
<path d="M21.1293 3.92188H13.2842C12.8796 3.92188 12.5518 4.24994 12.5518 4.6543C12.5518 5.05885 12.8796 5.38672 13.2842 5.38672H21.1293C21.5337 5.38672 21.8617 5.05885 21.8617 4.6543C21.8617 4.24994 21.5338 3.92188 21.1293 3.92188Z" fill="#3F78F4"/>
<path d="M21.1293 7.06055H13.2842C12.8796 7.06055 12.5518 7.38842 12.5518 7.79297C12.5518 8.19733 12.8796 8.52539 13.2842 8.52539H21.1293C21.5337 8.52539 21.8617 8.19733 21.8617 7.79297C21.8617 7.38842 21.5338 7.06055 21.1293 7.06055Z" fill="#3F78F4"/>
<path d="M17.2066 10.1992H13.2842C12.8796 10.1992 12.5518 10.5271 12.5518 10.9316C12.5518 11.3362 12.8796 11.6641 13.2842 11.6641H17.2066C17.6112 11.6641 17.9391 11.3362 17.9391 10.9316C17.9391 10.5271 17.6112 10.1992 17.2066 10.1992Z" fill="#3F78F4"/>
</svg>
