<svg width="25" height="23" viewBox="0 0 25 23" fill="none" xmlns="http://www.w3.org/2000/svg">
<path d="M19.1274 5.48167C19.1274 6.23904 18.576 6.69965 18.1734 7.03766C18.0209 7.16569 17.7371 7.3993 17.7379 7.48656C17.7406 7.82885 17.4654 8.10219 17.1231 8.10219C17.1213 8.10219 17.1196 8.10219 17.1179 8.10219C16.778 8.10219 16.501 7.83725 16.4982 7.49668C16.4928 6.8254 16.9826 6.42341 17.3763 6.0929C17.6852 5.83353 17.8877 5.65102 17.8877 5.48401C17.8877 5.14593 17.6127 4.87086 17.2746 4.87086C16.9364 4.87086 16.6612 5.14593 16.6612 5.48401C16.6612 5.82637 16.3837 6.10385 16.0414 6.10385C15.699 6.10385 15.4216 5.82637 15.4216 5.48401C15.4216 4.46239 16.2528 3.63119 17.2744 3.63119C18.2962 3.63112 19.1274 4.45998 19.1274 5.48167ZM17.1351 8.67437C16.7927 8.67437 16.5289 8.95185 16.5289 9.2942V9.29896C16.5289 9.64131 16.7928 9.91645 17.1351 9.91645C17.4773 9.91645 17.7549 9.63656 17.7549 9.2942C17.7549 8.95185 17.4774 8.67437 17.1351 8.67437ZM4.64132 12.9921C4.29897 12.9921 4.02149 13.2695 4.02149 13.6119C4.02149 13.9543 4.29897 14.2317 4.64132 14.2317H4.69298C5.03533 14.2317 5.31281 13.9543 5.31281 13.6119C5.31281 13.2695 5.03533 12.9921 4.69298 12.9921H4.64132ZM6.79552 12.9921C6.45317 12.9921 6.17569 13.2695 6.17569 13.6119C6.17569 13.9543 6.45317 14.2317 6.79552 14.2317H6.84711C7.18946 14.2317 7.46694 13.9543 7.46694 13.6119C7.46694 13.2695 7.18946 12.9921 6.84711 12.9921H6.79552ZM25 3.092V10.0687C25 11.7205 23.6755 13.0609 22.0236 13.0609H13.9853C13.8281 13.0609 13.6987 13.06 13.5904 13.0578C13.477 13.0554 13.3493 13.0545 13.2995 13.06C13.2477 13.0945 13.1205 13.2109 12.998 13.3238C12.9494 13.3685 12.8945 13.4177 12.8352 13.4718L10.561 15.5447C10.3795 15.7102 10.1112 15.753 9.8865 15.654C9.66185 15.5549 9.50413 15.3324 9.50413 15.0869V8.51548H3.01102C2.04256 8.51548 1.23967 9.30908 1.23967 10.2774V17.2541C1.23967 18.2224 2.04263 18.9838 3.01102 18.9838H11.9899C12.1446 18.9838 12.2892 19.0548 12.4034 19.1591L14.2562 20.8673V14.9762C14.2562 14.6339 14.5337 14.3564 14.876 14.3564C15.2184 14.3564 15.4959 14.6339 15.4959 14.9762V22.2722C15.4959 22.5178 15.3554 22.7369 15.1306 22.836C15.0503 22.8715 14.9696 22.8855 14.8851 22.8855C14.7333 22.8855 14.5835 22.8231 14.4671 22.7168L11.7497 20.2234H3.01102C1.35909 20.2234 0 18.9059 0 17.254V10.2774C0 8.62554 1.35909 7.27582 3.01102 7.27582H9.50413V3.092C9.50413 1.44007 10.8736 0.113281 12.5256 0.113281H22.0237C23.6755 0.113281 25 1.44007 25 3.092ZM23.7603 3.092C23.7603 2.12361 22.9919 1.35295 22.0236 1.35295H12.5256C11.5572 1.35295 10.7438 2.12361 10.7438 3.092V7.90144V13.682L11.99 12.5558C12.0477 12.5031 12.1124 12.4549 12.1596 12.4114C12.7287 11.887 12.8742 11.8032 13.6165 11.8184C13.7178 11.8206 13.8384 11.8213 13.9853 11.8213H22.0236C22.9919 11.8213 23.7603 11.037 23.7603 10.0687V3.092Z" fill="#3F78F4"/>
</svg>
