<svg width="24" height="18" viewBox="0 0 24 18" fill="none" xmlns="http://www.w3.org/2000/svg">
<path d="M18.1258 11.2695C16.4577 11.2695 15.1006 12.6266 15.1006 14.2947C15.1006 15.9629 16.4577 17.32 18.1258 17.32C19.7942 17.32 21.151 15.9629 21.151 14.2947C21.151 12.6266 19.7939 11.2695 18.1258 11.2695ZM18.1258 15.8074C17.2916 15.8074 16.6132 15.1289 16.6132 14.2947C16.6132 13.4606 17.2916 12.7821 18.1258 12.7821C18.96 12.7821 19.6384 13.4606 19.6384 14.2947C19.6384 15.129 18.96 15.8074 18.1258 15.8074Z" fill="#3F78F4"/>
<path d="M7.78987 11.2695C6.12173 11.2695 4.76465 12.6266 4.76465 14.2947C4.76465 15.9629 6.12173 17.32 7.78987 17.32C9.45801 17.32 10.8151 15.9629 10.8151 14.2947C10.8151 12.6266 9.45801 11.2695 7.78987 11.2695ZM7.78987 15.8074C6.95568 15.8074 6.27726 15.1289 6.27726 14.2947C6.27726 13.4606 6.95568 12.7821 7.78987 12.7821C8.62382 12.7821 9.30248 13.4606 9.30248 14.2947C9.30248 15.129 8.62405 15.8074 7.78987 15.8074Z" fill="#3F78F4"/>
<path d="M20.163 2.60984C20.0344 2.35447 19.773 2.19336 19.4871 2.19336H15.5039V3.70597H19.0207L21.0801 7.80209L22.4319 7.12241L20.163 2.60984Z" fill="#3F78F4"/>
<path d="M15.8575 13.5625H10.1348V15.0751H15.8575V13.5625Z" fill="#3F78F4"/>
<path d="M5.52067 13.5625H2.89886C2.48111 13.5625 2.14258 13.9011 2.14258 14.3188C2.14258 14.7365 2.48116 15.0751 2.89886 15.0751H5.52072C5.93847 15.0751 6.277 14.7365 6.277 14.3188C6.277 13.901 5.93842 13.5625 5.52067 13.5625Z" fill="#3F78F4"/>
<path d="M23.8409 8.94045L22.3533 7.02448C22.2103 6.83994 21.9897 6.73203 21.756 6.73203H16.2602V1.43792C16.2602 1.02017 15.9216 0.681641 15.5039 0.681641H2.89886C2.48111 0.681641 2.14258 1.02022 2.14258 1.43792C2.14258 1.85562 2.48116 2.1942 2.89886 2.1942H14.7476V7.48831C14.7476 7.90606 15.0862 8.24459 15.5039 8.24459H21.3857L22.4871 9.66341V13.5639H20.3946C19.9769 13.5639 19.6383 13.9025 19.6383 14.3202C19.6383 14.738 19.9769 15.0765 20.3946 15.0765H23.2434C23.6611 15.0765 23.9996 14.7379 23.9997 14.3202V9.40433C23.9997 9.23642 23.9437 9.07306 23.8409 8.94045Z" fill="#3F78F4"/>
<path d="M5.47065 9.73047H1.99163C1.57388 9.73047 1.23535 10.069 1.23535 10.4868C1.23535 10.9045 1.57393 11.243 1.99163 11.243H5.4706C5.88835 11.243 6.22688 10.9045 6.22688 10.4868C6.22693 10.069 5.88835 9.73047 5.47065 9.73047Z" fill="#3F78F4"/>
<path d="M7.21008 6.75586H0.756281C0.338578 6.75586 0 7.09444 0 7.51219C0 7.92994 0.338578 8.26847 0.756281 8.26847H7.21008C7.62783 8.26847 7.96636 7.92989 7.96636 7.51219C7.96636 7.09448 7.62783 6.75586 7.21008 6.75586Z" fill="#3F78F4"/>
<path d="M8.44543 3.78125H1.99163C1.57388 3.78125 1.23535 4.11983 1.23535 4.53753C1.23535 4.95528 1.57393 5.29381 1.99163 5.29381H8.44543C8.86318 5.29381 9.20171 4.95523 9.20171 4.53753C9.20176 4.11983 8.86318 3.78125 8.44543 3.78125Z" fill="#3F78F4"/>
</svg>
