<svg width="23" height="23" viewBox="0 0 23 23" fill="none" xmlns="http://www.w3.org/2000/svg">
<path d="M11.9492 18.2383C11.9492 18.4864 11.7481 18.6875 11.5 18.6875C11.2519 18.6875 11.0508 18.4864 11.0508 18.2383C11.0508 17.9902 11.2519 17.7891 11.5 17.7891C11.7481 17.7891 11.9492 17.9902 11.9492 18.2383Z" fill="#3F78F4"/>
<path d="M21.5176 14.1953C21.5176 12.709 20.3085 11.5 18.8223 11.5C17.336 11.5 16.127 12.709 16.127 14.1953C16.127 15.6816 17.336 16.8906 18.8223 16.8906C20.3085 16.8906 21.5176 15.6816 21.5176 14.1953ZM18.8223 15.9922C17.8315 15.9922 17.0254 15.1861 17.0254 14.1953C17.0254 13.2046 17.8315 12.3984 18.8223 12.3984C19.813 12.3984 20.6191 13.2046 20.6191 14.1953C20.6191 15.1861 19.813 15.9922 18.8223 15.9922Z" fill="#3F78F4"/>
<path d="M18.8223 16.8906C17.6903 16.8906 16.5614 17.3605 15.7925 18.1225C14.7803 16.7924 13.2197 15.9922 11.5 15.9922C9.85316 15.9922 8.25738 16.7436 7.20768 18.1225C6.43857 17.3607 5.30991 16.8906 4.17773 16.8906C1.91322 16.8906 0 18.7421 0 20.9336V21.832C0 22.0802 0.201096 22.2812 0.449219 22.2812H22.5508C22.7989 22.2812 23 22.0802 23 21.832V20.9336C23 18.7421 21.0868 16.8906 18.8223 16.8906ZM0.898438 20.9336C0.898438 19.229 2.40016 17.7891 4.17773 17.7891C5.1504 17.7891 6.11499 18.22 6.71214 18.9051C6.31731 19.6677 6.10938 20.5177 6.10938 21.3828H0.898438V20.9336ZM11.5 16.8906C13.9997 16.8906 15.9922 18.9188 15.9922 21.3828H7.00781C7.00781 18.886 9.04105 16.8906 11.5 16.8906ZM22.1016 21.3828H16.8906C16.8906 20.5177 16.6827 19.6677 16.2879 18.9051C16.885 18.22 17.8496 17.7891 18.8223 17.7891C20.5998 17.7891 22.1016 19.229 22.1016 20.9336V21.3828Z" fill="#3F78F4"/>
<path d="M6.87305 14.1953C6.87305 12.709 5.66402 11.5 4.17773 11.5C2.69145 11.5 1.48242 12.709 1.48242 14.1953C1.48242 15.6816 2.69145 16.8906 4.17773 16.8906C5.66402 16.8906 6.87305 15.6816 6.87305 14.1953ZM4.17773 15.9922C3.187 15.9922 2.38086 15.1861 2.38086 14.1953C2.38086 13.2046 3.187 12.3984 4.17773 12.3984C5.16847 12.3984 5.97461 13.2046 5.97461 14.1953C5.97461 15.1861 5.16847 15.9922 4.17773 15.9922Z" fill="#3F78F4"/>
<path d="M15.0938 12.3984C15.0938 10.4168 13.4817 8.80469 11.5 8.80469C9.51835 8.80469 7.90625 10.4168 7.90625 12.3984C7.90625 14.3801 9.51835 15.9922 11.5 15.9922C13.4817 15.9922 15.0938 14.3801 15.0938 12.3984ZM11.5 15.0938C10.0137 15.0938 8.80469 13.8847 8.80469 12.3984C8.80469 10.9122 10.0137 9.70312 11.5 9.70312C12.9863 9.70312 14.1953 10.9122 14.1953 12.3984C14.1953 13.8847 12.9863 15.0938 11.5 15.0938Z" fill="#3F78F4"/>
<path d="M15.0552 3.33141C15.0024 3.16875 14.8618 3.0503 14.6925 3.02573L12.7549 2.74445L11.8873 0.970734C11.812 0.81649 11.6555 0.71875 11.4839 0.71875C11.3123 0.71875 11.1558 0.81649 11.0803 0.970558L10.2129 2.74445L8.27532 3.02556C8.10599 3.05013 7.96543 3.16875 7.91261 3.33141C7.8598 3.49408 7.90384 3.67254 8.02632 3.79186L9.42943 5.15935L9.09831 7.09046C9.06935 7.25892 9.13867 7.42931 9.27712 7.52968C9.41469 7.6297 9.59789 7.64391 9.7502 7.5639L11.4839 6.6523L13.2183 7.5639C13.3696 7.64356 13.5529 7.63023 13.6914 7.52968C13.8297 7.42913 13.899 7.25892 13.87 7.09029L13.5386 5.15935L14.9415 3.79186C15.064 3.67254 15.108 3.49408 15.0552 3.33141ZM12.7421 4.68082C12.6363 4.784 12.5878 4.93281 12.6129 5.07845L12.8303 6.34521L11.6929 5.74719C11.562 5.67841 11.4056 5.67841 11.2747 5.74719L10.1377 6.34521L10.3549 5.07845C10.3798 4.93263 10.3314 4.784 10.2256 4.68082L9.30537 3.78397L10.5767 3.59937C10.7237 3.57813 10.8506 3.48548 10.9157 3.35212L11.4839 2.19047L12.0519 3.35212C12.1172 3.48566 12.2441 3.57813 12.3909 3.59937L13.6624 3.78397L12.7421 4.68082Z" fill="#3F78F4"/>
<path d="M21.7699 6.69827C21.7171 6.53561 21.5765 6.41716 21.4072 6.39259L20.0944 6.20185L19.5075 5.01212C19.4318 4.85876 19.2758 4.76172 19.1047 4.76172C19.1047 4.76172 19.1047 4.76172 19.1046 4.76172C18.9337 4.76172 18.7775 4.85876 18.7019 5.01212L18.1145 6.20185L16.8016 6.39259C16.6325 6.41716 16.4919 6.53561 16.4391 6.69827C16.3861 6.86094 16.4301 7.0394 16.5526 7.15872L17.5025 8.08506L17.2782 9.39236C17.2494 9.56081 17.3186 9.73103 17.457 9.83157C17.5953 9.93212 17.7787 9.94546 17.9299 9.86597L19.1046 9.24882L20.2789 9.86597C20.4301 9.94546 20.6137 9.93212 20.7519 9.83157C20.8902 9.7312 20.9594 9.56081 20.9306 9.39236L20.7063 8.08506L21.6563 7.15872C21.7788 7.0394 21.8227 6.86094 21.7699 6.69827ZM19.9102 7.60671C19.8042 7.70989 19.7559 7.85852 19.781 8.00417L19.8912 8.64711L19.3137 8.34371C19.1828 8.27493 19.0265 8.27493 18.8958 8.34371L18.3177 8.64729L18.4281 8.00417C18.453 7.85852 18.4048 7.70989 18.299 7.60671L17.8315 7.15083L18.4774 7.05712C18.6238 7.03589 18.7503 6.94394 18.8157 6.81145L19.1046 6.22624L19.3932 6.81128C19.4587 6.94394 19.5852 7.03589 19.7315 7.05712L20.3775 7.15083L19.9102 7.60671Z" fill="#3F78F4"/>
<path d="M6.49644 6.69827C6.44362 6.53561 6.30307 6.41716 6.13373 6.39259L4.821 6.20185L4.23403 5.01212C4.1584 4.85876 4.0024 4.76172 3.83131 4.76172C3.66022 4.76172 3.50405 4.85876 3.42842 5.01212L2.8411 6.20185L1.52819 6.39259C1.35903 6.41716 1.21847 6.53561 1.16565 6.69827C1.11266 6.86094 1.15671 7.0394 1.27919 7.15872L2.22904 8.08506L2.00496 9.39236C1.976 9.56081 2.04532 9.73103 2.18359 9.83157C2.32187 9.93212 2.50524 9.94546 2.65667 9.86597L3.83114 9.24882L5.00542 9.86597C5.15773 9.94598 5.34093 9.93159 5.47851 9.83157C5.61678 9.7312 5.68609 9.56081 5.65714 9.39236L5.43288 8.08506L6.38291 7.15872C6.50539 7.0394 6.54926 6.86094 6.49644 6.69827ZM4.63657 7.60671C4.53076 7.70989 4.4825 7.85852 4.50742 8.00417L4.6178 8.64711L4.04013 8.34371C3.9094 8.27493 3.75305 8.27493 3.62232 8.34371L3.04413 8.64729L3.1545 8.00417C3.17959 7.85852 3.13116 7.70989 3.02535 7.60671L2.55788 7.15083L3.20398 7.05712C3.35016 7.03589 3.47667 6.94394 3.54213 6.81145L3.83096 6.22624L4.11962 6.81128C4.18507 6.94394 4.31159 7.03589 4.45794 7.05712L5.10386 7.15083L4.63657 7.60671Z" fill="#3F78F4"/>
<path d="M13.4684 18.3766C13.261 18.2403 12.9825 18.298 12.8464 18.5054C12.71 18.7127 12.7677 18.9911 12.9752 19.1275C13.3905 19.4004 13.7225 19.7808 13.9352 20.2275C14.0415 20.4513 14.3093 20.5469 14.5337 20.44C14.7578 20.3335 14.8529 20.0654 14.7464 19.8415C14.4632 19.2463 14.0212 18.7397 13.4684 18.3766Z" fill="#3F78F4"/>
</svg>
