<svg width="28" height="28" viewBox="0 0 28 28" fill="none" xmlns="http://www.w3.org/2000/svg">
<path d="M10.25 14.9375H3.6875C2.94158 14.9375 2.22621 15.2338 1.69876 15.7613C1.17132 16.2887 0.875 17.0041 0.875 17.75V24.3125C0.875 25.0584 1.17132 25.7738 1.69876 26.3012C2.22621 26.8287 2.94158 27.125 3.6875 27.125H10.25C10.9959 27.125 11.7113 26.8287 12.2387 26.3012C12.7662 25.7738 13.0625 25.0584 13.0625 24.3125V17.75C13.0625 17.0041 12.7662 16.2887 12.2387 15.7613C11.7113 15.2338 10.9959 14.9375 10.25 14.9375ZM11.1875 24.3125C11.1875 24.5611 11.0887 24.7996 10.9129 24.9754C10.7371 25.1512 10.4986 25.25 10.25 25.25H3.6875C3.43886 25.25 3.2004 25.1512 3.02459 24.9754C2.84877 24.7996 2.75 24.5611 2.75 24.3125V17.75C2.75 17.5014 2.84877 17.2629 3.02459 17.0871C3.2004 16.9113 3.43886 16.8125 3.6875 16.8125H10.25C10.4986 16.8125 10.7371 16.9113 10.9129 17.0871C11.0887 17.2629 11.1875 17.5014 11.1875 17.75V24.3125Z" fill="#3F78F4"/>
<path d="M21.0313 14.9375C19.826 14.9375 18.6479 15.2949 17.6457 15.9645C16.6436 16.6341 15.8626 17.5858 15.4014 18.6993C14.9401 19.8128 14.8195 21.038 15.0546 22.2201C15.2897 23.4022 15.8701 24.488 16.7223 25.3402C17.5745 26.1924 18.6603 26.7728 19.8424 27.0079C21.0245 27.243 22.2497 27.1224 23.3632 26.6611C24.4767 26.1999 25.4284 25.4189 26.098 24.4168C26.7676 23.4146 27.125 22.2365 27.125 21.0312C27.123 19.4157 26.4804 17.8669 25.338 16.7245C24.1956 15.5821 22.6468 14.9395 21.0313 14.9375ZM21.0313 25.25C20.1969 25.25 19.3812 25.0026 18.6874 24.539C17.9937 24.0754 17.4529 23.4166 17.1336 22.6457C16.8143 21.8748 16.7308 21.0266 16.8936 20.2082C17.0563 19.3899 17.4581 18.6381 18.0481 18.0481C18.6381 17.4581 19.3899 17.0563 20.2082 16.8936C21.0266 16.7308 21.8748 16.8143 22.6457 17.1336C23.4166 17.4529 24.0755 17.9937 24.539 18.6874C25.0026 19.3812 25.25 20.1969 25.25 21.0312C25.2488 22.1498 24.8039 23.2221 24.013 24.013C23.2221 24.8039 22.1498 25.2488 21.0313 25.25Z" fill="#3F78F4"/>
<path d="M9.85532 13.0619H18.1447C18.645 13.0618 19.1363 12.9283 19.5679 12.6751C19.9994 12.4219 20.3556 12.0582 20.5997 11.6214C20.8438 11.1846 20.9669 10.6906 20.9564 10.1904C20.9459 9.69016 20.8022 9.20178 20.54 8.77562L16.3953 2.03969C16.1436 1.6306 15.7913 1.29281 15.372 1.0585C14.9527 0.824189 14.4803 0.701172 14 0.701172C13.5197 0.701172 13.0474 0.824189 12.628 1.0585C12.2087 1.29281 11.8564 1.6306 11.6047 2.03969L7.46001 8.77562C7.19783 9.20178 7.05408 9.69016 7.04359 10.1904C7.0331 10.6906 7.15624 11.1846 7.40033 11.6214C7.64441 12.0582 8.0006 12.4219 8.43215 12.6751C8.86369 12.9283 9.35498 13.0618 9.85532 13.0619ZM9.05751 9.75906L13.2013 3.02312C13.2853 2.88746 13.4027 2.7755 13.5421 2.69787C13.6816 2.62023 13.8385 2.57948 13.9981 2.57948C14.1577 2.57948 14.3147 2.62023 14.4542 2.69787C14.5936 2.7755 14.7109 2.88746 14.795 3.02312L18.9388 9.75906C19.0257 9.90078 19.0734 10.0631 19.077 10.2293C19.0806 10.3955 19.0398 10.5597 18.959 10.705C18.8782 10.8504 18.7602 10.9716 18.6171 11.0562C18.474 11.1409 18.311 11.186 18.1447 11.1869H9.85532C9.68874 11.1867 9.52522 11.142 9.38159 11.0576C9.23797 10.9732 9.11943 10.8521 9.03817 10.7067C8.95691 10.5612 8.91587 10.3968 8.91927 10.2302C8.92267 10.0637 8.97039 9.90105 9.05751 9.75906Z" fill="#3F78F4"/>
</svg>
