<svg width="23" height="24" viewBox="0 0 23 24" fill="none" xmlns="http://www.w3.org/2000/svg">
<path fill-rule="evenodd" clip-rule="evenodd" d="M11.6641 0.625C8.52538 0.625 5.97656 3.17381 5.97656 6.3125C5.97656 9.45119 8.52538 12 11.6641 12C14.8036 12 17.3516 9.45119 17.3516 6.3125C17.3516 3.17381 14.8036 0.625 11.6641 0.625ZM11.6641 2.25C13.9066 2.25 15.7266 4.07 15.7266 6.3125C15.7266 8.555 13.9066 10.375 11.6641 10.375C9.42238 10.375 7.60156 8.555 7.60156 6.3125C7.60156 4.07 9.42238 2.25 11.6641 2.25Z" fill="#3F78F4"/>
<path fill-rule="evenodd" clip-rule="evenodd" d="M1.91406 21.75H10.9994C11.4479 21.75 11.8119 22.114 11.8119 22.5625C11.8119 23.011 11.4479 23.375 10.9994 23.375H1.10156C0.653063 23.375 0.289062 23.011 0.289062 22.5625C0.289062 22.5625 0.289062 21.8922 0.289062 20.9375C0.289062 16.8986 3.56344 13.625 7.60156 13.625H10.9994C11.4479 13.625 11.8119 13.989 11.8119 14.4375C11.8119 14.886 11.4479 15.25 10.9994 15.25H7.60156C4.46044 15.25 1.91406 17.7964 1.91406 20.9375V21.75Z" fill="#3F78F4"/>
<path fill-rule="evenodd" clip-rule="evenodd" d="M18.3533 22.2479L16.4089 23.5649C16.1595 23.7331 15.8378 23.751 15.5729 23.6096C15.3072 23.469 15.1406 23.1928 15.1406 22.8922V17.42C15.1406 17.0828 15.3494 16.7797 15.6647 16.6603C15.9808 16.5409 16.3374 16.6278 16.5609 16.8805C17.0004 17.3753 17.6415 17.6881 18.3541 17.6881C19.0674 17.6881 19.7085 17.3753 20.1473 16.8805C20.3715 16.6278 20.7282 16.5409 21.0434 16.6603C21.3595 16.7797 21.5675 17.0828 21.5675 17.42V22.8922C21.5675 23.1928 21.4018 23.469 21.1361 23.6096C20.8704 23.751 20.5486 23.7331 20.3 23.5649L18.3533 22.2479ZM16.7656 18.9865V21.3606L17.8983 20.5944C18.1729 20.4084 18.5336 20.4075 18.8091 20.5936L19.9425 21.3614V18.9865C19.4558 19.1969 18.9179 19.3131 18.3541 19.3131C17.7902 19.3131 17.2531 19.1969 16.7656 18.9865Z" fill="#3F78F4"/>
<path fill-rule="evenodd" clip-rule="evenodd" d="M18.3531 11.2695C16.1342 11.2695 14.332 13.0717 14.332 15.2906C14.332 17.5103 16.1342 19.3125 18.3531 19.3125C20.5728 19.3125 22.375 17.5103 22.375 15.2906C22.375 13.0717 20.5728 11.2695 18.3531 11.2695ZM18.3531 12.8945C19.6758 12.8945 20.75 13.9678 20.75 15.2906C20.75 16.6133 19.6758 17.6875 18.3531 17.6875C17.0303 17.6875 15.957 16.6133 15.957 15.2906C15.957 13.9678 17.0303 12.8945 18.3531 12.8945Z" fill="#3F78F4"/>
</svg>
