<svg width="28" height="28" viewBox="0 0 28 28" fill="none" xmlns="http://www.w3.org/2000/svg">
<path d="M26.7694 16.2255L25.6046 15.2666C24.8067 14.6098 24.8081 13.3889 25.6046 12.7334L26.7694 11.7745C27.5983 11.092 27.8103 9.92184 27.2735 8.99188L24.9735 5.00812C24.4366 4.07821 23.3169 3.6768 22.3116 4.05338L20.8988 4.5827C19.931 4.94517 18.8745 4.33382 18.7049 3.31609L18.4569 1.82782C18.2803 0.768742 17.3729 0 16.2992 0H11.6991C10.6253 0 9.71787 0.768742 9.54139 1.82788L9.29333 3.31609C9.12341 4.33563 8.06543 4.94457 7.09948 4.58276L5.68663 4.05338C4.68131 3.6768 3.56175 4.07827 3.02477 5.00812L0.72478 8.99183C0.187913 9.92168 0.399882 11.0919 1.22889 11.7744L2.39368 12.7333C3.19168 13.3902 3.19009 14.611 2.39368 15.2666L1.22883 16.2255C0.399882 16.908 0.187858 18.0782 0.724725 19.0081L3.02477 22.9918C3.56169 23.9217 4.68104 24.3231 5.68663 23.9466L7.09943 23.4172C8.06734 23.0546 9.12369 23.6664 9.29327 24.6839L9.54133 26.172C9.71786 27.2313 10.6253 28 11.6991 28H16.2991C17.3729 28 18.2803 27.2313 18.4568 26.1721L18.7048 24.684C18.8747 23.6647 19.9326 23.0553 20.8987 23.4174L22.3116 23.9466C23.3172 24.3232 24.4366 23.9218 24.9735 22.9919L27.2736 19.0081C27.8103 18.0782 27.5983 16.908 26.7694 16.2255ZM23.0791 21.8981L21.6662 21.3688C19.4077 20.5227 16.9428 21.9501 16.5472 24.3243L16.2992 25.8125H11.6991L11.4511 24.3243C11.0546 21.9455 8.58622 20.5244 6.33205 21.3688L4.9192 21.8981L2.61921 17.9144L3.784 16.9555C5.64605 15.4226 5.64217 12.5742 3.784 11.0445L2.61921 10.0856L4.91926 6.10187L6.33205 6.63119C8.59065 7.4772 11.0554 6.04986 11.4511 3.67571L11.6991 2.1875H16.2991L16.5471 3.67571C16.9436 6.05473 19.4122 7.47545 21.6662 6.63119L23.079 6.10187L25.3795 10.0851C25.3795 10.0851 25.3794 10.0852 25.3789 10.0856L24.2142 11.0445C22.3522 12.5772 22.3559 15.4256 24.2142 16.9554L25.379 17.9143L23.0791 21.8981ZM13.9991 8.60415C11.0239 8.60415 8.60328 11.0247 8.60328 14C8.60328 16.9753 11.0239 19.3959 13.9991 19.3959C16.9744 19.3959 19.395 16.9753 19.395 14C19.395 11.0247 16.9744 8.60415 13.9991 8.60415ZM13.9991 17.2084C12.23 17.2084 10.7908 15.7691 10.7908 14C10.7908 12.2309 12.23 10.7916 13.9991 10.7916C15.7682 10.7916 17.2075 12.2309 17.2075 14C17.2075 15.7691 15.7682 17.2084 13.9991 17.2084Z" fill="#3F78F4"/>
</svg>
