<svg width="28" height="28" viewBox="0 0 28 28" fill="none" xmlns="http://www.w3.org/2000/svg">
<path d="M23.8984 7.05469H23.1328V4.10156C23.1328 1.83996 21.2929 0 19.0312 0H8.96875C6.70715 0 4.86719 1.83996 4.86719 4.10156V7.05469H4.10156C1.83996 7.05469 0 8.89465 0 11.1562V17.7188C0 19.9804 1.83996 21.8203 4.10156 21.8203H4.86719V25.5391C4.86719 26.896 5.97116 28 7.32812 28H20.6719C22.0288 28 23.1328 26.896 23.1328 25.5391V21.8203H23.8984C26.16 21.8203 28 19.9804 28 17.7188V11.1562C28 8.89465 26.16 7.05469 23.8984 7.05469ZM6.50781 4.10156C6.50781 2.7446 7.61179 1.64062 8.96875 1.64062H19.0312C20.3882 1.64062 21.4922 2.7446 21.4922 4.10156V7.05469H6.50781V4.10156ZM21.4922 25.5391C21.4922 25.9914 21.1242 26.3594 20.6719 26.3594H7.32812C6.8758 26.3594 6.50781 25.9914 6.50781 25.5391V17.4453H21.4922V25.5391ZM26.3594 17.7188C26.3594 19.0757 25.2554 20.1797 23.8984 20.1797H23.1328V17.4453H23.625C24.078 17.4453 24.4453 17.078 24.4453 16.625C24.4453 16.172 24.078 15.8047 23.625 15.8047H4.375C3.92197 15.8047 3.55469 16.172 3.55469 16.625C3.55469 17.078 3.92197 17.4453 4.375 17.4453H4.86719V20.1797H4.10156C2.7446 20.1797 1.64062 19.0757 1.64062 17.7188V11.1562C1.64062 9.79929 2.7446 8.69531 4.10156 8.69531H23.8984C25.2554 8.69531 26.3594 9.79929 26.3594 11.1562V17.7188Z" fill="#3F78F4"/>
<path d="M16.1875 19.3047H11.8125C11.3595 19.3047 10.9922 19.672 10.9922 20.125C10.9922 20.578 11.3595 20.9453 11.8125 20.9453H16.1875C16.6405 20.9453 17.0078 20.578 17.0078 20.125C17.0078 19.672 16.6405 19.3047 16.1875 19.3047Z" fill="#3F78F4"/>
<path d="M16.1875 22.8047H11.8125C11.3595 22.8047 10.9922 23.172 10.9922 23.625C10.9922 24.078 11.3595 24.4453 11.8125 24.4453H16.1875C16.6405 24.4453 17.0078 24.078 17.0078 23.625C17.0078 23.172 16.6405 22.8047 16.1875 22.8047Z" fill="#3F78F4"/>
<path d="M7 10.5547H4.375C3.92197 10.5547 3.55469 10.922 3.55469 11.375C3.55469 11.828 3.92197 12.1953 4.375 12.1953H7C7.45303 12.1953 7.82031 11.828 7.82031 11.375C7.82031 10.922 7.45303 10.5547 7 10.5547Z" fill="#3F78F4"/>
</svg>
