<svg width="28" height="28" viewBox="0 0 28 28" fill="none" xmlns="http://www.w3.org/2000/svg">
<path d="M27.5861 20.4587L22.2703 12.8043C22.0727 12.5204 21.816 12.2919 21.5374 12.091C21.8164 11.8901 22.0735 11.6612 22.2715 11.3769L27.5861 3.72309C27.8571 3.3328 28.0001 2.881 28.0001 2.41679C28 1.08442 26.8267 0 25.385 0H2.61504C1.17332 0 0 1.08442 0 2.41679C0 2.881 0.142943 3.3328 0.413915 3.72309L5.72978 11.3775C5.92731 11.6614 6.18409 11.8899 6.4627 12.0908C6.18367 12.2917 5.92654 12.5206 5.72853 12.8049L0.413855 20.4587C0.142943 20.849 0 21.3008 0 21.765C0 21.8777 0.0198068 21.9854 0.0360341 22.0941C0.0188523 22.1518 0 22.2094 0 22.2727V25.4545C0 26.8584 1.14223 28 2.54548 28H25.4546C26.8578 28 28.0001 26.8584 28.0001 25.4545V22.2727C28.0001 22.2093 27.9812 22.1518 27.964 22.094C27.9803 21.9853 28.0001 21.8777 28.0001 21.765C28 21.3008 27.8571 20.849 27.5861 20.4587ZM1.4604 2.99727C1.33732 2.8208 1.27271 2.62005 1.27271 2.41685C1.27271 1.78608 1.87425 1.27277 2.61504 1.27277H25.385C26.1257 1.27277 26.7273 1.78608 26.7273 2.41685C26.7273 2.62005 26.6627 2.8208 26.5396 2.99727L21.2262 10.6504C20.8807 11.1463 20.2543 11.4546 19.5893 11.4546H8.41069C7.74572 11.4546 7.1193 11.1463 6.77501 10.651L1.4604 2.99727ZM26.7273 25.4546C26.7273 26.1562 26.1568 26.7273 25.4546 26.7273H2.54548C1.84323 26.7273 1.27277 26.1562 1.27277 25.4546V23.8281C1.66652 24.0479 2.12261 24.1819 2.6151 24.1819H25.385C25.8774 24.1819 26.3335 24.0479 26.7273 23.8281V25.4546ZM25.385 22.9091H2.61504C1.87425 22.9091 1.27271 22.3958 1.27271 21.765C1.27271 21.5618 1.33732 21.3611 1.4604 21.1846L6.77382 13.5315C7.11936 13.0355 7.74578 12.7273 8.41074 12.7273H19.5894C20.2543 12.7273 20.8808 13.0356 21.225 13.5309L26.5397 21.1847C26.6627 21.3611 26.7274 21.5619 26.7274 21.7651C26.7273 22.3958 26.1257 22.9091 25.385 22.9091Z" fill="#3F78F4"/>
<path d="M20.11 14.2709C19.9919 14.1018 19.798 14.0011 19.5917 14.0011L8.34468 13.9844H8.34343C8.13462 13.9844 7.93948 14.0863 7.82016 14.2578L3.39047 20.6382C3.25624 20.8327 3.24007 21.0863 3.34942 21.2963C3.46003 21.5057 3.6763 21.6375 3.91368 21.6375H24.076C24.3133 21.6375 24.5309 21.5051 24.6415 21.2939C24.7508 21.0832 24.7335 20.829 24.5955 20.6345L20.11 14.2709ZM5.13055 20.3648L8.67657 15.2577L19.2599 15.2733L22.8494 20.3648H5.13055Z" fill="#3F78F4"/>
<path d="M20.9997 26.0911C21.3511 26.0911 21.636 25.8062 21.636 25.4547C21.636 25.1033 21.3511 24.8184 20.9997 24.8184C20.6482 24.8184 20.3633 25.1033 20.3633 25.4547C20.3633 25.8062 20.6482 26.0911 20.9997 26.0911Z" fill="#3F78F4"/>
<path d="M23.5465 26.0911C23.898 26.0911 24.1829 25.8062 24.1829 25.4547C24.1829 25.1033 23.898 24.8184 23.5465 24.8184C23.1951 24.8184 22.9102 25.1033 22.9102 25.4547C22.9102 25.8062 23.1951 26.0911 23.5465 26.0911Z" fill="#3F78F4"/>
</svg>
