<svg width="28" height="28" viewBox="0 0 28 28" fill="none" xmlns="http://www.w3.org/2000/svg">
<path d="M27.7051 5.70916L22.2365 0.240297C22.0827 0.0864063 21.874 0 21.6565 0H9.07812C7.72116 0 6.61719 1.10398 6.61719 2.46094V13.2802C2.93092 13.6896 0.0546875 16.8236 0.0546875 20.6172C0.0546875 24.6881 3.36662 28 7.4375 28H25.4844C26.8413 28 27.9453 26.896 27.9453 25.5391V6.28923C27.9453 6.07162 27.8589 5.86305 27.7051 5.70916ZM22.4766 2.80071L24.2588 4.58303L25.1445 5.46875H22.4766V2.80071ZM1.69531 20.6172C1.69531 17.4509 4.27126 14.875 7.4375 14.875C10.6037 14.875 13.1797 17.4509 13.1797 20.6172C13.1797 23.7834 10.6037 26.3594 7.4375 26.3594C4.27126 26.3594 1.69531 23.7834 1.69531 20.6172ZM25.4844 26.3594H12.0722C13.5467 25.1669 14.5544 23.4194 14.7745 21.4375H23.2969C23.7499 21.4375 24.1172 21.0702 24.1172 20.6172C24.1172 20.1642 23.7499 19.7969 23.2969 19.7969H14.7745C14.6407 18.5927 14.2165 17.4749 13.5731 16.5156H23.2969C23.7499 16.5156 24.1172 16.1483 24.1172 15.6953C24.1172 15.2423 23.7499 14.875 23.2969 14.875H12.0722C11.0047 14.0117 9.6927 13.4396 8.25781 13.2802V2.46094C8.25781 2.00862 8.6258 1.64062 9.07812 1.64062H20.8359V6.28906C20.8359 6.74209 21.2032 7.10938 21.6562 7.10938H26.3047V25.5391C26.3047 25.9914 25.9367 26.3594 25.4844 26.3594Z" fill="#3F78F4"/>
<path d="M23.2969 9.95312H11.2656C10.8126 9.95312 10.4453 10.3204 10.4453 10.7734C10.4453 11.2265 10.8126 11.5938 11.2656 11.5938H23.2969C23.7499 11.5938 24.1172 11.2265 24.1172 10.7734C24.1172 10.3204 23.7499 9.95312 23.2969 9.95312Z" fill="#3F78F4"/>
<path d="M10.6972 18.5605C10.3769 18.2402 9.8575 18.2402 9.53715 18.5605L6.28909 21.8086L5.22848 20.748C4.90818 20.4277 4.38875 20.4277 4.06839 20.748C3.74804 21.0683 3.74804 21.5877 4.06839 21.9081L5.70902 23.5487C5.8692 23.7089 6.07914 23.789 6.28909 23.789C6.49904 23.789 6.70898 23.7089 6.86911 23.5487L10.6972 19.7206C11.0176 19.4003 11.0176 18.8808 10.6972 18.5605Z" fill="#3F78F4"/>
</svg>
