<svg width="26" height="28" viewBox="0 0 26 28" fill="none" xmlns="http://www.w3.org/2000/svg">
<path d="M18.366 21.8532L16.8775 20.1697L15.6484 21.2564L18.3131 24.2702L22.629 19.7996L21.4486 18.6602L18.366 21.8532Z" fill="#3F78F4"/>
<path d="M19.2045 14.5103C19.0549 14.5103 18.9066 14.5158 18.7594 14.5254L18.2837 6.3832H14.4021V4.8C14.402 2.15327 12.2487 0 9.602 0C6.95528 0 4.80201 2.15327 4.80201 4.8V6.3832H0.920276L0.0580695 21.1419C-0.00903234 22.2911 0.388985 23.3851 1.17884 24.2224C1.96869 25.0598 3.03762 25.5209 4.18869 25.5209H13.9839C15.2218 27.0331 17.1023 28 19.2045 28C22.9235 28 25.9493 24.9743 25.9493 21.2552C25.9493 17.5361 22.9235 14.5103 19.2045 14.5103V14.5103ZM6.44259 4.8C6.44259 3.05792 7.85987 1.64063 9.60195 1.64063C11.344 1.64063 12.7614 3.05792 12.7614 4.8V6.3832H6.44259V4.8ZM4.18869 23.8803C3.49404 23.8803 2.84895 23.602 2.37229 23.0966C1.89563 22.5913 1.65544 21.9311 1.69591 21.2376L2.46783 8.02389H4.80196V10.0795H6.44259V8.02389H12.7614V10.0795H14.402V8.02389H16.7361L17.1341 14.8359C14.4248 15.7118 12.4597 18.2581 12.4597 21.2553C12.4597 22.1859 12.6491 23.0731 12.9915 23.8803H4.18869V23.8803ZM19.2045 26.3594C16.39 26.3594 14.1003 24.0697 14.1003 21.2552C14.1003 18.4407 16.39 16.151 19.2045 16.151C22.0189 16.151 24.3086 18.4407 24.3086 21.2552C24.3086 24.0697 22.0189 26.3594 19.2045 26.3594V26.3594Z" fill="#3F78F4"/>
</svg>
