<svg width="27" height="33" viewBox="0 0 27 33" fill="none" xmlns="http://www.w3.org/2000/svg">
<path d="M13.5 0C6.0561 0 0 6.50558 0 14.502C0 15.3881 0 22.2433 0 22.3652C0 23.9645 1.21122 25.2656 2.7 25.2656H3.7548C4.12632 26.3908 5.1267 27.1992 6.3 27.1992C7.78878 27.1992 9 25.8981 9 24.2988V16.4355C9 14.8363 7.78878 13.5352 6.3 13.5352C5.1267 13.5352 4.12632 14.3435 3.7548 15.4688H2.7C2.38446 15.4688 2.0817 15.5277 1.8 15.635V14.502C1.8 7.57176 7.04862 1.93359 13.5 1.93359C19.9514 1.93359 25.2 7.57176 25.2 14.502V15.635C24.9183 15.5277 24.6155 15.4688 24.3 15.4688H23.2452C22.8737 14.3435 21.8733 13.5352 20.7 13.5352C19.2112 13.5352 18 14.8363 18 16.4355V24.2988C18 25.8981 19.2112 27.1992 20.7 27.1992C20.9725 27.1992 21.2355 27.1553 21.4837 27.0742C21.147 28.2642 20.1163 29.1328 18.9 29.1328H16.0452C15.6737 28.0076 14.6733 27.1992 13.5 27.1992C12.0112 27.1992 10.8 28.5003 10.8 30.0996C10.8 31.6989 12.0112 33 13.5 33C14.6733 33 15.6737 32.1916 16.0452 31.0664H18.9C21.3813 31.0664 23.4 28.8979 23.4 26.2324V25.2656H24.3C25.7888 25.2656 27 23.9645 27 22.3652C27 22.2451 27 15.3874 27 14.502C27 6.50558 20.9439 0 13.5 0ZM5.4 16.4355C5.4 15.9025 5.80374 15.4688 6.3 15.4688C6.79626 15.4688 7.2 15.9025 7.2 16.4355V24.2988C7.2 24.8319 6.79626 25.2656 6.3 25.2656C5.80374 25.2656 5.4 24.8319 5.4 24.2988V16.4355ZM2.7 17.4023H3.6V23.332H2.7C2.20374 23.332 1.8 22.8983 1.8 22.3652V18.3691C1.8 17.836 2.20374 17.4023 2.7 17.4023ZM13.5 31.0664C13.0037 31.0664 12.6 30.6327 12.6 30.0996C12.6 29.5665 13.0037 29.1328 13.5 29.1328C13.9963 29.1328 14.4 29.5665 14.4 30.0996C14.4 30.6327 13.9963 31.0664 13.5 31.0664ZM21.6 24.2988C21.6 24.8319 21.1963 25.2656 20.7 25.2656C20.2037 25.2656 19.8 24.8319 19.8 24.2988V16.4355C19.8 15.9025 20.2037 15.4688 20.7 15.4688C21.1963 15.4688 21.6 15.9025 21.6 16.4355V24.2988ZM25.2 22.3652C25.2 22.8983 24.7963 23.332 24.3 23.332H23.4V17.4023H24.3C24.7963 17.4023 25.2 17.836 25.2 18.3691V22.3652Z" fill="#3F78F4"/>
</svg>
