<svg width="28" height="29" viewBox="0 0 28 29" fill="none" xmlns="http://www.w3.org/2000/svg">
<path d="M3.85539 29H24.1446C26.2715 29 28 27.2761 28 25.1548V5.99331C28 3.87201 26.2715 2.14811 24.1446 2.14811H22.6154V1.07405C22.6154 0.483306 22.1307 0 21.5384 0C20.9461 0 20.4615 0.483306 20.4615 1.07405V2.14811H7.5385V1.07405C7.5385 0.483306 7.05382 0 6.4615 0C5.86919 0 5.3846 0.483306 5.3846 1.07405V2.14811H3.85539C1.72847 2.14811 0 3.87201 0 5.99331V25.1548C0 27.2761 1.72847 29 3.85539 29ZM2.15389 5.99331C2.15389 5.05889 2.9185 4.29631 3.85539 4.29631H5.3846V5.37036C5.3846 5.96111 5.86919 6.44442 6.4615 6.44442C7.05382 6.44442 7.53841 5.96111 7.53841 5.37036V4.29631H20.4615V5.37036C20.4615 5.96111 20.9461 6.44442 21.5384 6.44442C22.1307 6.44442 22.6153 5.96111 22.6153 5.37036V4.29631H24.1445C25.0814 4.29631 25.846 5.05889 25.846 5.99331V9.12964H2.15389V5.99331ZM2.15389 11.2777H25.8462V25.1548C25.8462 26.0892 25.0816 26.8518 24.1447 26.8518H3.85539C2.9185 26.8518 2.15389 26.0892 2.15389 25.1548V11.2777Z" fill="#3F78F4"/>
</svg>
