<svg width="27" height="28" viewBox="0 0 27 28" fill="none" xmlns="http://www.w3.org/2000/svg">
<path d="M26.4978 5.9589C26.4978 5.60368 26.2832 5.28361 25.9546 5.1486L13.5818 0.0657002C13.3685 -0.0219001 13.1293 -0.0219001 12.916 0.0657002L0.543122 5.1486C0.214566 5.28356 0 5.60368 0 5.9589V22.0411C0 22.3963 0.214511 22.7164 0.543122 22.8514L12.916 27.9343C13.127 28.021 13.3642 28.0228 13.5807 27.9342C13.5912 27.9307 13.1228 28.1229 25.9546 22.8514C26.2833 22.7164 26.4978 22.3963 26.4978 22.0411V5.9589ZM13.2489 10.1684L8.68995 8.29558L18.5423 3.99764L23.4061 5.99575L13.2489 10.1684ZM1.75201 7.33948L5.68531 8.95532V13.514C5.68531 13.9978 6.07754 14.39 6.56131 14.39C7.04509 14.39 7.43732 13.9978 7.43732 13.514V9.67507L12.3729 11.7026V25.8171L1.75201 21.4539V7.33948ZM13.2489 1.82302L16.2857 3.07055L6.43331 7.3685L3.09163 5.99569L13.2489 1.82302ZM14.1249 11.7026L24.7458 7.33948V21.4539L14.1249 25.8171V11.7026Z" fill="#3F78F4"/>
</svg>
