<svg width="27" height="27" viewBox="0 0 27 27" fill="none" xmlns="http://www.w3.org/2000/svg">
<path d="M13.5 27C9.89408 27 6.50384 25.5957 3.95405 23.046C1.40426 20.4962 0 17.1059 0 13.5C0 9.89408 1.40426 6.50384 3.95405 3.95405C6.50384 1.40426 9.89408 0 13.5 0C17.1059 0 20.4962 1.40426 23.046 3.95405C25.5957 6.50384 27 9.89408 27 13.5C27 16.1647 26.2092 18.7563 24.7126 20.9945C24.389 21.4785 23.734 21.6087 23.2497 21.2849C22.7656 20.9613 22.6354 20.3062 22.9592 19.8219C24.2228 17.932 24.8906 15.7459 24.8906 13.5C24.8906 7.21925 19.7807 2.10938 13.5 2.10938C7.21925 2.10938 2.10938 7.21925 2.10938 13.5C2.10938 19.7807 7.21925 24.8906 13.5 24.8906C15.5832 24.8906 17.6209 24.3233 19.3924 23.2503C19.8905 22.9485 20.539 23.1075 20.841 23.6058C21.1428 24.1041 20.9835 24.7526 20.4852 25.0544C18.3841 26.3272 15.9686 27 13.5 27ZM18.3522 20.4269C19.0857 19.891 19.3776 18.9877 19.0956 18.1256L18.1962 15.3756L20.5532 13.6743C21.2826 13.1478 21.5855 12.2146 21.3067 11.3525C21.0243 10.4787 20.2527 9.91406 19.3405 9.91406H16.4103L15.5185 7.17023C15.2359 6.30629 14.4643 5.74805 13.5527 5.74805C12.6412 5.74805 11.8696 6.30629 11.5863 7.17229L10.6952 9.91406H7.76493C6.85279 9.91406 6.08114 10.4787 5.79872 11.3523C5.52001 12.2146 5.82282 13.1478 6.55225 13.6743L8.90923 15.3754L8.00986 18.1256C7.72785 18.9877 8.01974 19.891 8.75329 20.4267C9.49157 20.966 10.4474 20.9687 11.1883 20.4337L13.5527 18.7267L15.9171 20.4337C16.2861 20.7001 16.7079 20.8332 17.13 20.8332C17.5556 20.8332 17.9814 20.6976 18.3522 20.4269ZM10.7146 12.0234C11.6178 12.0234 12.4078 11.464 12.681 10.6291L13.5529 7.94641L14.4251 10.6309C14.6976 11.464 15.4876 12.0234 16.3909 12.0234H19.2361L16.9325 13.6862C16.2026 14.2129 15.9 15.1405 16.1794 15.9944L17.047 18.6478L14.7654 17.0007C14.4103 16.7444 13.9909 16.6089 13.5527 16.6089C13.1144 16.6089 12.695 16.7442 12.3398 17.0007L10.0583 18.648L10.9261 15.9946C11.2054 15.1405 10.9026 14.2129 10.173 13.6862L7.86958 12.0234H10.7146ZM19.3445 12.0236H19.3449H19.3445Z" fill="#3F78F4"/>
</svg>
