<svg width="32" height="26" viewBox="0 0 32 26" fill="none" xmlns="http://www.w3.org/2000/svg">
<path d="M31.7254 18.9616L29.2468 16.483V7.98107L30.865 7.39769C31.2365 7.2637 31.4842 6.91142 31.4845 6.51646C31.4848 6.12162 31.2376 5.76884 30.8662 5.63442L16.0614 0.272807C15.8552 0.198127 15.6292 0.198127 15.423 0.272807L0.618259 5.63442C0.248357 5.76841 0.00150563 6.119 5.77354e-06 6.5124C-0.00136909 6.9058 0.24292 7.2582 0.61176 7.39488L6.07555 9.41887V15.5968C6.07555 15.7885 6.13429 15.9757 6.24397 16.1329C6.30428 16.2194 6.87554 16.9995 8.33815 17.7357C10.1859 18.6659 12.6094 19.1375 15.5413 19.1375C18.471 19.1375 20.9068 18.6669 22.7809 17.7385C24.2579 17.0069 24.8482 16.2349 24.9107 16.1494C25.0277 15.9889 25.0907 15.7955 25.0907 15.5969V9.47936L27.3721 8.65688V16.483L24.8934 18.9616C24.7176 19.1374 24.6188 19.3759 24.6188 19.6245C24.6188 19.8731 24.7176 20.1115 24.8934 20.2873L27.3721 22.7658V24.8455C27.3721 25.3632 27.7918 25.7829 28.3095 25.7829C28.8272 25.7829 29.2469 25.3632 29.2469 24.8455V22.7658L31.7255 20.2873C32.0916 19.9213 32.0916 19.3277 31.7254 18.9616ZM15.7422 2.15119L27.7887 6.51384L15.5457 10.9277L3.66284 6.52577L15.7422 2.15119ZM23.2158 15.2232C20.0112 18.1068 10.4885 17.7761 7.95037 15.2326V10.1134L15.2156 12.8048C15.3309 12.823 15.4398 12.9225 15.8592 12.8077L23.2159 10.1554V15.2232H23.2158ZM28.3094 21.0519L26.8819 19.6245L28.3094 18.1969L29.7369 19.6245L28.3094 21.0519Z" fill="#3F78F4"/>
</svg>
