<svg width="30" height="22" viewBox="0 0 30 22" fill="none" xmlns="http://www.w3.org/2000/svg">
<path d="M22.6575 13.8359C20.5723 13.8359 18.876 15.5323 18.876 17.6175C18.876 19.7026 20.5723 21.399 22.6575 21.399C24.743 21.399 26.439 19.7026 26.439 17.6175C26.439 15.5323 24.7427 13.8359 22.6575 13.8359ZM22.6575 19.5082C21.6148 19.5082 20.7667 18.6602 20.7667 17.6175C20.7667 16.5747 21.6148 15.7267 22.6575 15.7267C23.7002 15.7267 24.5483 16.5747 24.5483 17.6175C24.5483 18.6603 23.7002 19.5082 22.6575 19.5082Z" fill="#3F78F4"/>
<path d="M9.73758 13.8359C7.6524 13.8359 5.95605 15.5323 5.95605 17.6175C5.95605 19.7026 7.6524 21.399 9.73758 21.399C11.8228 21.399 13.5191 19.7026 13.5191 17.6175C13.5191 15.5323 11.8228 13.8359 9.73758 13.8359ZM9.73758 19.5082C8.69484 19.5082 7.84682 18.6602 7.84682 17.6175C7.84682 16.5747 8.69484 15.7267 9.73758 15.7267C10.78 15.7267 11.6283 16.5747 11.6283 17.6175C11.6283 18.6603 10.7803 19.5082 9.73758 19.5082Z" fill="#3F78F4"/>
<path d="M25.2037 3.01279C25.043 2.69357 24.7162 2.49219 24.3589 2.49219H19.3799V4.38295H23.7759L26.3501 9.5031L28.0399 8.6535L25.2037 3.01279Z" fill="#3F78F4"/>
<path d="M19.8213 16.7031H12.668V18.5939H19.8213V16.7031Z" fill="#3F78F4"/>
<path d="M6.90133 16.7031H3.62406C3.10187 16.7031 2.67871 17.1263 2.67871 17.6485C2.67871 18.1707 3.10193 18.5938 3.62406 18.5938H6.90139C7.42357 18.5938 7.84674 18.1706 7.84674 17.6485C7.84674 17.1263 7.42352 16.7031 6.90133 16.7031Z" fill="#3F78F4"/>
<path d="M29.8016 10.9251L27.9421 8.53012C27.7634 8.29943 27.4877 8.16455 27.1955 8.16455H20.3257V1.54691C20.3257 1.02473 19.9025 0.601562 19.3804 0.601562H3.62406C3.10187 0.601562 2.67871 1.02478 2.67871 1.54691C2.67871 2.06904 3.10193 2.49227 3.62406 2.49227H18.435V9.1099C18.435 9.63209 18.8582 10.0553 19.3803 10.0553H26.7326L28.1093 11.8288V16.7044H25.4938C24.9716 16.7044 24.5484 17.1276 24.5484 17.6498C24.5484 18.172 24.9716 18.5951 25.4938 18.5951H29.0547C29.5769 18.5951 30 18.1719 30.0001 17.6498V11.5049C30.0001 11.295 29.9301 11.0908 29.8016 10.9251Z" fill="#3F78F4"/>
<path d="M6.83807 11.9141H2.4893C1.96711 11.9141 1.54395 12.3373 1.54395 12.8594C1.54395 13.3816 1.96717 13.8048 2.4893 13.8048H6.83801C7.3602 13.8048 7.78336 13.3815 7.78336 12.8594C7.78342 12.3373 7.36019 11.9141 6.83807 11.9141Z" fill="#3F78F4"/>
<path d="M9.0126 8.19531H0.945352C0.423223 8.19531 0 8.61853 0 9.14072C0 9.66291 0.423223 10.0861 0.945352 10.0861H9.0126C9.53479 10.0861 9.95795 9.66285 9.95795 9.14072C9.95795 8.61859 9.53479 8.19531 9.0126 8.19531Z" fill="#3F78F4"/>
<path d="M10.5565 4.47656H2.4893C1.96711 4.47656 1.54395 4.89979 1.54395 5.42191C1.54395 5.9441 1.96717 6.36727 2.4893 6.36727H10.5565C11.0787 6.36727 11.5019 5.94404 11.5019 5.42191C11.502 4.89979 11.0787 4.47656 10.5565 4.47656Z" fill="#3F78F4"/>
</svg>
