<svg width="25" height="19" viewBox="0 0 25 19" fill="none" xmlns="http://www.w3.org/2000/svg">
<path d="M22.8027 0.710938H2.19727C0.983252 0.710938 0 1.70029 0 2.9082V16.0918C0 17.3069 0.990479 18.2891 2.19727 18.2891H22.8027C24.0066 18.2891 25 17.311 25 16.0918V2.9082C25 1.70244 24.0207 0.710938 22.8027 0.710938ZM22.495 2.17578C22.0461 2.62231 14.3205 10.3073 14.0537 10.5726C13.6387 10.9876 13.0869 11.2162 12.5 11.2162C11.9131 11.2162 11.3613 10.9876 10.9449 10.5712C10.7655 10.3928 3.12515 2.79268 2.50498 2.17578H22.495ZM1.46484 15.7937V3.20728L7.79482 9.50391L1.46484 15.7937ZM2.50591 16.8242L8.8334 10.537L9.9105 11.6084C10.6022 12.3001 11.5218 12.681 12.5 12.681C13.4782 12.681 14.3978 12.3001 15.0881 11.6098L16.1666 10.537L22.4941 16.8242H2.50591ZM23.5352 15.7937L17.2052 9.50391L23.5352 3.20728V15.7937Z" fill="#3F78F4"/>
</svg>
