<?xml version="1.0" encoding="utf-8"?>
<!-- Generator: Adobe Illustrator 26.0.0, SVG Export Plug-In . SVG Version: 6.00 Build 0)  -->
<svg version="1.1" id="Слой_1" xmlns="http://www.w3.org/2000/svg" xmlns:xlink="http://www.w3.org/1999/xlink" x="0px" y="0px"
	 viewBox="0 0 261.5 125.71" style="enable-background:new 0 0 261.5 125.71;" xml:space="preserve">
<style type="text/css">
	.st0{fill:#4B4A4A;}
	.st1{fill:#486EB4;}
	.st2{fill:#343434;}
</style>
<g>
	<path class="st0" d="M120.78,12.14l0.55,0.61c1.56,1.68,3.24,3.27,5.01,4.82h27.96V9.7h-35.35
		C119.48,10.56,120.08,11.38,120.78,12.14z"/>
	<g>
		<path class="st0" d="M116.72,0.2c-0.27,2.61,0.18,5.26,1.26,7.68h36.32V0h-37.56L116.72,0.2z"/>
		<path class="st0" d="M154.3,19.39h-25.82c2.24,1.85,4.58,3.65,7,5.48l0,0l1.53,1.15c0.54,0.41,1.09,0.82,1.63,1.24h15.66V19.39z"
			/>
	</g>
	<path class="st0" d="M144.54,51.88l-0.55-0.61c-1.56-1.68-3.24-3.27-5.01-4.82h-30.38v7.88h37.78
		C145.84,53.46,145.23,52.64,144.54,51.88z"/>
	<g>
		<path class="st0" d="M129.82,39.14L129.82,39.14L128.31,38c-0.54-0.41-1.09-0.82-1.63-1.24h-18.08v7.88h28.25
			C134.6,42.78,132.24,40.97,129.82,39.14z"/>
		<path class="st0" d="M148.59,63.82c0.27-2.61-0.18-5.26-1.26-7.68h-38.74v7.88h39.98L148.59,63.82z"/>
	</g>
	<path class="st1" d="M114.8,0.54c-0.32,4.46,1.2,9.15,4.58,12.87l0,0c0,0,0.01,0.01,0.01,0.01c4.67,5.18,10.48,9.57,16.49,14.1l0,0
		c6.31,4.77,12.57,9.79,18.01,15.77c5.15,5.66,5.2,13.93-0.13,18.68l-0.23,0.21l0,0c0,0,0,0,0,0l-0.05,0.05c0,0,0,0,0,0
		c-0.92,0.75-1.93,1.35-2.99,1.78c0.48-4.61-1.02-9.54-4.53-13.41l0,0c0,0-0.01-0.01-0.01-0.01c-4.67-5.18-10.48-9.57-16.49-14.1
		l0,0c-6.31-4.77-12.57-9.79-18.01-15.77c-5.15-5.66-5.2-13.93,0.13-18.68l0.23-0.21l0,0c0,0,0,0,0,0l0.05-0.05c0,0,0,0,0,0
		c0.92-0.75,1.93-1.35,2.99-1.78C114.85,0,114.81,0.36,114.8,0.54z"/>
</g>
<g>
	<path class="st2" d="M27.05,92.81l-5.45,5.75c-0.7-0.9-1.64-1.63-2.83-2.2c-1.18-0.57-2.34-0.85-3.48-0.85
		c-1.33,0-2.49,0.28-3.47,0.83c-0.98,0.55-1.48,1.46-1.48,2.72c0,0.57,0.12,1.06,0.35,1.48c0.23,0.42,0.62,0.78,1.17,1.1
		c0.55,0.32,1.09,0.58,1.62,0.8c0.53,0.22,1.3,0.48,2.3,0.78c1.3,0.43,2.32,0.78,3.05,1.05c0.73,0.27,1.67,0.71,2.82,1.33
		c1.15,0.62,2.04,1.26,2.68,1.92c0.63,0.67,1.2,1.56,1.7,2.67c0.5,1.12,0.75,2.34,0.75,3.67c0,3.83-1.31,6.76-3.92,8.78
		c-2.62,2.02-5.83,3.03-9.62,3.03c-2.57,0-5.03-0.45-7.4-1.35c-2.37-0.9-4.32-2.15-5.85-3.75l5.6-5.7c0.87,1.1,2.01,2,3.42,2.7
		c1.42,0.7,2.83,1.05,4.23,1.05c1.43,0,2.61-0.31,3.52-0.92c0.92-0.62,1.38-1.59,1.38-2.92c0-0.53-0.12-1.01-0.38-1.42
		s-0.52-0.77-0.82-1.05c-0.3-0.28-0.83-0.59-1.6-0.93c-0.77-0.33-1.42-0.59-1.95-0.77c-0.53-0.18-1.4-0.48-2.6-0.88
		c-1.3-0.43-2.42-0.88-3.35-1.35c-0.93-0.47-1.87-1.08-2.8-1.85c-0.93-0.77-1.65-1.73-2.15-2.9c-0.5-1.17-0.75-2.52-0.75-4.05
		c0-1.87,0.4-3.54,1.2-5.02c0.8-1.48,1.87-2.65,3.2-3.5c1.33-0.85,2.79-1.49,4.38-1.93c1.58-0.43,3.23-0.65,4.93-0.65
		c2.07,0,4.14,0.38,6.22,1.12C23.76,90.34,25.55,91.41,27.05,92.81z"/>
	<path class="st2" d="M63.35,124.76H54.8v-14.8H41v14.8h-8.55v-35.4H41v13.4h13.8v-13.4h8.55V124.76z"/>
	<path class="st2" d="M95.8,96.66h-10v28.1h-8.55v-28.1h-10v-7.3H95.8V96.66z"/>
	<path class="st2" d="M128.65,124.76h-10L111,110.71h-2.9v14.05h-8.4v-35.4h13.5c1.8,0,3.47,0.18,5,0.55
		c1.53,0.37,2.97,0.95,4.3,1.75c1.33,0.8,2.38,1.92,3.12,3.35c0.75,1.43,1.12,3.12,1.12,5.05c0,2.33-0.65,4.33-1.95,6
		c-1.3,1.67-3.1,2.85-5.4,3.55L128.65,124.76z M118.3,100.21c0-2.63-1.9-3.95-5.7-3.95h-4.55v8.25h4.05
		C116.23,104.51,118.3,103.08,118.3,100.21z"/>
	<path class="st2" d="M141.45,124.76h-8.6v-35.4h8.6V124.76z"/>
	<path class="st2" d="M179.65,124.76h-8.55v-14.8h-13.8v14.8h-8.55v-35.4h8.55v13.4h13.8v-13.4h8.55V124.76z"/>
	<path class="st1" d="M194.37,116.89c0.98,0.95,1.47,2.11,1.47,3.47c0,1.37-0.49,2.53-1.47,3.48c-0.98,0.95-2.16,1.42-3.53,1.42
		c-1.4,0-2.6-0.47-3.6-1.4c-1-0.93-1.5-2.08-1.5-3.45s0.5-2.53,1.5-3.5s2.2-1.45,3.6-1.45
		C192.21,115.46,193.39,115.94,194.37,116.89z"/>
	<path class="st1" d="M226.1,92.81l-5.45,5.75c-0.7-0.9-1.64-1.63-2.82-2.2c-1.18-0.57-2.34-0.85-3.48-0.85
		c-1.33,0-2.49,0.28-3.47,0.83c-0.98,0.55-1.48,1.46-1.48,2.72c0,0.57,0.12,1.06,0.35,1.48c0.23,0.42,0.62,0.78,1.17,1.1
		c0.55,0.32,1.09,0.58,1.62,0.8c0.53,0.22,1.3,0.48,2.3,0.78c1.3,0.43,2.32,0.78,3.05,1.05c0.73,0.27,1.68,0.71,2.83,1.33
		c1.15,0.62,2.04,1.26,2.67,1.92c0.63,0.67,1.2,1.56,1.7,2.67c0.5,1.12,0.75,2.34,0.75,3.67c0,3.83-1.31,6.76-3.92,8.78
		c-2.62,2.02-5.83,3.03-9.62,3.03c-2.57,0-5.03-0.45-7.4-1.35c-2.37-0.9-4.32-2.15-5.85-3.75l5.6-5.7c0.87,1.1,2.01,2,3.43,2.7
		c1.42,0.7,2.82,1.05,4.22,1.05c1.43,0,2.61-0.31,3.53-0.92c0.92-0.62,1.38-1.59,1.38-2.92c0-0.53-0.12-1.01-0.38-1.42
		s-0.53-0.77-0.83-1.05s-0.83-0.59-1.6-0.93c-0.77-0.33-1.42-0.59-1.95-0.77c-0.53-0.18-1.4-0.48-2.6-0.88
		c-1.3-0.43-2.42-0.88-3.35-1.35c-0.93-0.47-1.87-1.08-2.8-1.85c-0.93-0.77-1.65-1.73-2.15-2.9c-0.5-1.17-0.75-2.52-0.75-4.05
		c0-1.87,0.4-3.54,1.2-5.02s1.87-2.65,3.2-3.5c1.33-0.85,2.79-1.49,4.38-1.93c1.58-0.43,3.22-0.65,4.92-0.65
		c2.07,0,4.14,0.38,6.22,1.12S224.6,91.41,226.1,92.81z"/>
	<path class="st1" d="M261.5,111.41c0,4.27-1.39,7.72-4.18,10.35c-2.78,2.63-6.47,3.95-11.07,3.95c-4.6,0-8.27-1.31-11-3.92
		c-2.73-2.62-4.1-6.08-4.1-10.38V89.36h8.5v21.35c0,2.1,0.55,3.84,1.65,5.22c1.1,1.38,2.77,2.08,5,2.08c2.27,0,3.94-0.69,5.02-2.08
		c1.08-1.38,1.62-3.12,1.62-5.22V89.36h8.55V111.41z"/>
</g>
</svg>
